<svg width="253" height="151" viewBox="0 0 253 151" fill="none" xmlns="http://www.w3.org/2000/svg">
<rect x="0.262329" width="252.243" height="150.048" rx="14.7953" fill="black"/>
<rect x="0.570564" y="0.308235" width="251.627" height="149.432" rx="14.4871" stroke="white" stroke-opacity="0.5" stroke-width="0.616471"/>
<path d="M228.583 27.6832H34.072V28.2753H228.583V27.6832Z" fill="#FDFEFF"/>
<path d="M228.583 34.3097H34.072V34.9018H228.583V34.3097Z" fill="#FDFEFF"/>
<path d="M228.583 40.9362H34.072V41.5282H228.583V40.9362Z" fill="#FDFEFF"/>
<path d="M228.583 47.5707H34.072V48.1709H228.583V47.5707Z" fill="#FDFEFF"/>
<path d="M228.583 54.1973H34.072V54.7975H228.583V54.1973Z" fill="#FDFEFF"/>
<path d="M228.583 60.8236H34.072V61.4238H228.583V60.8236Z" fill="#FDFEFF"/>
<path d="M228.583 67.4501H34.072V68.0422H228.583V67.4501Z" fill="#FDFEFF"/>
<path d="M228.583 74.0764H34.072V74.6766H228.583V74.0764Z" fill="#FDFEFF"/>
<path d="M228.583 80.703H34.072V81.2951H228.583V80.703Z" fill="#FDFEFF"/>
<path d="M228.583 87.3375H34.072V87.9296H228.583V87.3375Z" fill="#FDFEFF"/>
<path d="M228.583 93.964H34.072V94.5561H228.583V93.964Z" fill="#FDFEFF"/>
<path d="M228.583 100.59H34.072V101.183H228.583V100.59Z" fill="#FDFEFF"/>
<path d="M228.583 107.217H34.072V107.809H228.583V107.217Z" fill="#FDFEFF"/>
<path d="M228.583 113.843H34.072V114.435H228.583V113.843Z" fill="#FDFEFF"/>
<path d="M34.1451 27.8617H33.553V114.403H34.1451V27.8617Z" fill="#FDFEFF"/>
<path d="M51.8426 27.8617H51.2505V114.403H51.8426V27.8617Z" fill="#FDFEFF"/>
<path d="M69.5402 27.8617H68.9481V114.403H69.5402V27.8617Z" fill="#FDFEFF"/>
<path d="M87.2378 27.8617H86.6457V114.403H87.2378V27.8617Z" fill="#FDFEFF"/>
<path d="M104.935 27.8617H104.343V114.403H104.935V27.8617Z" fill="#FDFEFF"/>
<path d="M122.625 27.8617H122.033V114.403H122.625V27.8617Z" fill="#FDFEFF"/>
<path d="M140.322 27.8617H139.73V114.403H140.322V27.8617Z" fill="#FDFEFF"/>
<path d="M158.02 27.8617H157.428V114.403H158.02V27.8617Z" fill="#FDFEFF"/>
<path d="M175.717 27.8617H175.125V114.403H175.717V27.8617Z" fill="#FDFEFF"/>
<path d="M193.415 27.8617H192.823V114.403H193.415V27.8617Z" fill="#FDFEFF"/>
<path d="M211.113 27.8617H210.521V114.403H211.113V27.8617Z" fill="#FDFEFF"/>
<path d="M228.802 27.8617H228.21V114.403H228.802V27.8617Z" fill="#FDFEFF"/>
<path d="M47.3794 124.374H44.8784V124.026L46.1997 122.558C46.3954 122.336 46.53 122.156 46.6034 122.018C46.6786 121.878 46.7161 121.734 46.7161 121.585C46.7161 121.386 46.6559 121.222 46.5353 121.095C46.4147 120.967 46.2539 120.903 46.0529 120.903C45.8117 120.903 45.6238 120.972 45.4892 121.11C45.3564 121.247 45.29 121.437 45.29 121.682H44.805C44.805 121.331 44.9177 121.047 45.1432 120.83C45.3704 120.613 45.6736 120.505 46.0529 120.505C46.4077 120.505 46.6882 120.598 46.8944 120.785C47.1007 120.971 47.2038 121.218 47.2038 121.527C47.2038 121.903 46.9643 122.35 46.4854 122.87L45.463 123.979H47.3794V124.374ZM50.2868 122.746C50.2868 123.314 50.1898 123.736 49.9958 124.013C49.8018 124.289 49.4986 124.427 49.0861 124.427C48.6789 124.427 48.3774 124.292 48.1816 124.023C47.9859 123.752 47.8845 123.348 47.8775 122.812V122.164C47.8775 121.603 47.9745 121.186 48.1685 120.914C48.3625 120.641 48.6667 120.505 49.0809 120.505C49.4916 120.505 49.794 120.637 49.988 120.901C50.182 121.163 50.2816 121.568 50.2868 122.117V122.746ZM49.8018 122.083C49.8018 121.672 49.7441 121.373 49.6288 121.186C49.5134 120.998 49.3308 120.903 49.0809 120.903C48.8327 120.903 48.6518 120.997 48.5382 121.184C48.4246 121.371 48.366 121.658 48.3625 122.046V122.822C48.3625 123.235 48.422 123.54 48.5408 123.737C48.6614 123.933 48.8432 124.031 49.0861 124.031C49.3256 124.031 49.503 123.938 49.6183 123.753C49.7354 123.568 49.7966 123.276 49.8018 122.877V122.083ZM52.5021 124.374H52.0145V121.142L51.0366 121.501V121.061L52.4261 120.539H52.5021V124.374ZM54.1459 122.461L54.3399 120.557H56.2956V121.006H54.7515L54.6361 122.046C54.8231 121.936 55.0355 121.881 55.2732 121.881C55.621 121.881 55.8971 121.997 56.1016 122.227C56.3061 122.456 56.4084 122.766 56.4084 123.158C56.4084 123.551 56.3018 123.861 56.0885 124.089C55.877 124.314 55.5808 124.427 55.1998 124.427C54.8625 124.427 54.5872 124.333 54.374 124.146C54.1607 123.959 54.0393 123.701 54.0096 123.37H54.4684C54.4981 123.589 54.5758 123.754 54.7017 123.866C54.8275 123.976 54.9936 124.031 55.1998 124.031C55.4253 124.031 55.6018 123.954 55.7294 123.8C55.8587 123.646 55.9234 123.434 55.9234 123.163C55.9234 122.908 55.8535 122.704 55.7136 122.55C55.5756 122.394 55.3912 122.316 55.1605 122.316C54.949 122.316 54.7829 122.363 54.6624 122.455L54.5339 122.56L54.1459 122.461Z" fill="#F5F7F6"/>
<path d="M65.7818 124.374H63.2807V124.026L64.602 122.558C64.7978 122.336 64.9324 122.156 65.0058 122.018C65.0809 121.878 65.1185 121.734 65.1185 121.585C65.1185 121.386 65.0582 121.222 64.9376 121.095C64.817 120.967 64.6562 120.903 64.4552 120.903C64.214 120.903 64.0261 120.972 63.8916 121.11C63.7587 121.247 63.6923 121.437 63.6923 121.682H63.2073C63.2073 121.331 63.32 121.047 63.5455 120.83C63.7727 120.613 64.076 120.505 64.4552 120.505C64.81 120.505 65.0905 120.598 65.2968 120.785C65.503 120.971 65.6061 121.218 65.6061 121.527C65.6061 121.903 65.3667 122.35 64.8878 122.87L63.8653 123.979H65.7818V124.374ZM68.6892 122.746C68.6892 123.314 68.5922 123.736 68.3982 124.013C68.2042 124.289 67.9009 124.427 67.4885 124.427C67.0812 124.427 66.7797 124.292 66.584 124.023C66.3882 123.752 66.2869 123.348 66.2799 122.812V122.164C66.2799 121.603 66.3769 121.186 66.5709 120.914C66.7649 120.641 67.069 120.505 67.4832 120.505C67.8939 120.505 68.1963 120.637 68.3903 120.901C68.5843 121.163 68.6839 121.568 68.6892 122.117V122.746ZM68.2042 122.083C68.2042 121.672 68.1465 121.373 68.0311 121.186C67.9158 120.998 67.7331 120.903 67.4832 120.903C67.235 120.903 67.0541 120.997 66.9405 121.184C66.8269 121.371 66.7684 121.658 66.7649 122.046V122.822C66.7649 123.235 66.8243 123.54 66.9432 123.737C67.0638 123.933 67.2455 124.031 67.4885 124.031C67.7279 124.031 67.9053 123.938 68.0207 123.753C68.1378 123.568 68.1989 123.276 68.2042 122.877V122.083ZM70.9045 124.374H70.4168V121.142L69.439 121.501V121.061L70.8284 120.539H70.9045V124.374ZM74.2287 120.555V120.966H74.1396C73.7621 120.973 73.4614 121.085 73.2377 121.302C73.014 121.519 72.8847 121.824 72.8497 122.217C73.0507 121.986 73.3251 121.871 73.6729 121.871C74.005 121.871 74.2698 121.988 74.4673 122.222C74.6665 122.456 74.7661 122.759 74.7661 123.129C74.7661 123.522 74.6587 123.837 74.4437 124.073C74.2305 124.309 73.9438 124.427 73.5838 124.427C73.2185 124.427 72.9223 124.287 72.695 124.007C72.4678 123.726 72.3542 123.364 72.3542 122.922V122.736C72.3542 122.033 72.5037 121.497 72.8025 121.126C73.1031 120.754 73.5497 120.563 74.1422 120.555H74.2287ZM73.5916 122.274C73.4256 122.274 73.2727 122.324 73.1329 122.424C72.993 122.524 72.896 122.648 72.8419 122.799V122.977C72.8419 123.292 72.9126 123.545 73.0542 123.737C73.1958 123.93 73.3723 124.026 73.5838 124.026C73.8023 124.026 73.9735 123.945 74.0976 123.785C74.2235 123.624 74.2864 123.413 74.2864 123.153C74.2864 122.891 74.2226 122.679 74.095 122.518C73.9692 122.356 73.8014 122.274 73.5916 122.274Z" fill="#F5F7F6"/>
<path d="M83.9544 124.374H81.4534V124.026L82.7747 122.558C82.9704 122.336 83.105 122.156 83.1784 122.018C83.2536 121.878 83.2912 121.734 83.2912 121.585C83.2912 121.386 83.2309 121.222 83.1103 121.095C82.9897 120.967 82.8289 120.903 82.6279 120.903C82.3867 120.903 82.1988 120.972 82.0642 121.11C81.9314 121.247 81.865 121.437 81.865 121.682H81.38C81.38 121.331 81.4927 121.047 81.7182 120.83C81.9454 120.613 82.2486 120.505 82.6279 120.505C82.9827 120.505 83.2632 120.598 83.4694 120.785C83.6757 120.971 83.7788 121.218 83.7788 121.527C83.7788 121.903 83.5393 122.35 83.0605 122.87L82.038 123.979H83.9544V124.374ZM86.8618 122.746C86.8618 123.314 86.7648 123.736 86.5708 124.013C86.3768 124.289 86.0736 124.427 85.6611 124.427C85.2539 124.427 84.9524 124.292 84.7567 124.023C84.5609 123.752 84.4595 123.348 84.4525 122.812V122.164C84.4525 121.603 84.5496 121.186 84.7436 120.914C84.9376 120.641 85.2417 120.505 85.6559 120.505C86.0666 120.505 86.369 120.637 86.563 120.901C86.757 121.163 86.8566 121.568 86.8618 122.117V122.746ZM86.3768 122.083C86.3768 121.672 86.3192 121.373 86.2038 121.186C86.0885 120.998 85.9058 120.903 85.6559 120.903C85.4077 120.903 85.2268 120.997 85.1132 121.184C84.9996 121.371 84.941 121.658 84.9376 122.046V122.822C84.9376 123.235 84.997 123.54 85.1158 123.737C85.2364 123.933 85.4182 124.031 85.6611 124.031C85.9006 124.031 86.078 123.938 86.1933 123.753C86.3104 123.568 86.3716 123.276 86.3768 122.877V122.083ZM89.0771 124.374H88.5895V121.142L87.6116 121.501V121.061L89.0011 120.539H89.0771V124.374ZM92.9624 120.83L91.3816 124.374H90.873L92.4486 120.956H90.3827V120.557H92.9624V120.83Z" fill="#F5F7F6"/>
<path d="M101.131 124.374H98.63V124.026L99.9513 122.558C100.147 122.336 100.282 122.156 100.355 122.018C100.43 121.878 100.468 121.734 100.468 121.585C100.468 121.386 100.407 121.222 100.287 121.095C100.166 120.967 100.006 120.903 99.8045 120.903C99.5633 120.903 99.3754 120.972 99.2409 121.11C99.108 121.247 99.0416 121.437 99.0416 121.682H98.5566C98.5566 121.331 98.6693 121.047 98.8948 120.83C99.122 120.613 99.4253 120.505 99.8045 120.505C100.159 120.505 100.44 120.598 100.646 120.785C100.852 120.971 100.955 121.218 100.955 121.527C100.955 121.903 100.716 122.35 100.237 122.87L99.2147 123.979H101.131V124.374ZM104.038 122.746C104.038 123.314 103.941 123.736 103.747 124.013C103.553 124.289 103.25 124.427 102.838 124.427C102.431 124.427 102.129 124.292 101.933 124.023C101.738 123.752 101.636 123.348 101.629 122.812V122.164C101.629 121.603 101.726 121.186 101.92 120.914C102.114 120.641 102.418 120.505 102.833 120.505C103.243 120.505 103.546 120.637 103.74 120.901C103.934 121.163 104.033 121.568 104.038 122.117V122.746ZM103.553 122.083C103.553 121.672 103.496 121.373 103.38 121.186C103.265 120.998 103.082 120.903 102.833 120.903C102.584 120.903 102.403 120.997 102.29 121.184C102.176 121.371 102.118 121.658 102.114 122.046V122.822C102.114 123.235 102.174 123.54 102.292 123.737C102.413 123.933 102.595 124.031 102.838 124.031C103.077 124.031 103.255 123.938 103.37 123.753C103.487 123.568 103.548 123.276 103.553 122.877V122.083ZM106.254 124.374H105.766V121.142L104.788 121.501V121.061L106.178 120.539H106.254V124.374ZM109.99 121.554C109.99 121.744 109.939 121.914 109.838 122.062C109.738 122.211 109.602 122.327 109.431 122.411C109.63 122.496 109.788 122.621 109.903 122.786C110.02 122.95 110.079 123.136 110.079 123.344C110.079 123.674 109.967 123.937 109.743 124.133C109.521 124.329 109.228 124.427 108.865 124.427C108.498 124.427 108.203 124.329 107.981 124.133C107.761 123.936 107.651 123.673 107.651 123.344C107.651 123.138 107.707 122.952 107.819 122.786C107.932 122.62 108.089 122.494 108.288 122.408C108.119 122.324 107.985 122.208 107.887 122.059C107.789 121.911 107.74 121.742 107.74 121.554C107.74 121.232 107.843 120.977 108.05 120.788C108.256 120.599 108.528 120.505 108.865 120.505C109.2 120.505 109.471 120.599 109.678 120.788C109.886 120.977 109.99 121.232 109.99 121.554ZM109.594 123.334C109.594 123.12 109.526 122.946 109.389 122.812C109.255 122.677 109.078 122.61 108.86 122.61C108.641 122.61 108.466 122.676 108.333 122.809C108.202 122.942 108.136 123.117 108.136 123.334C108.136 123.55 108.2 123.721 108.327 123.845C108.457 123.969 108.636 124.031 108.865 124.031C109.092 124.031 109.27 123.969 109.4 123.845C109.529 123.719 109.594 123.549 109.594 123.334ZM108.865 120.903C108.674 120.903 108.52 120.963 108.401 121.082C108.284 121.199 108.225 121.359 108.225 121.561C108.225 121.755 108.283 121.913 108.398 122.033C108.515 122.152 108.671 122.212 108.865 122.212C109.059 122.212 109.214 122.152 109.329 122.033C109.446 121.913 109.505 121.755 109.505 121.561C109.505 121.367 109.444 121.209 109.324 121.087C109.203 120.965 109.05 120.903 108.865 120.903Z" fill="#F5F7F6"/>
<path d="M118.998 124.374H116.497V124.026L117.818 122.558C118.014 122.336 118.149 122.156 118.222 122.018C118.297 121.878 118.335 121.734 118.335 121.585C118.335 121.386 118.275 121.222 118.154 121.095C118.033 120.967 117.873 120.903 117.672 120.903C117.43 120.903 117.242 120.972 117.108 121.11C116.975 121.247 116.909 121.437 116.909 121.682H116.424C116.424 121.331 116.536 121.047 116.762 120.83C116.989 120.613 117.292 120.505 117.672 120.505C118.026 120.505 118.307 120.598 118.513 120.785C118.719 120.971 118.822 121.218 118.822 121.527C118.822 121.903 118.583 122.35 118.104 122.87L117.082 123.979H118.998V124.374ZM121.905 122.746C121.905 123.314 121.808 123.736 121.614 124.013C121.42 124.289 121.117 124.427 120.705 124.427C120.298 124.427 119.996 124.292 119.8 124.023C119.605 123.752 119.503 123.348 119.496 122.812V122.164C119.496 121.603 119.593 121.186 119.787 120.914C119.981 120.641 120.285 120.505 120.7 120.505C121.11 120.505 121.413 120.637 121.607 120.901C121.801 121.163 121.9 121.568 121.905 122.117V122.746ZM121.42 122.083C121.42 121.672 121.363 121.373 121.247 121.186C121.132 120.998 120.949 120.903 120.7 120.903C120.451 120.903 120.27 120.997 120.157 121.184C120.043 121.371 119.985 121.658 119.981 122.046V122.822C119.981 123.235 120.041 123.54 120.159 123.737C120.28 123.933 120.462 124.031 120.705 124.031C120.944 124.031 121.122 123.938 121.237 123.753C121.354 123.568 121.415 123.276 121.42 122.877V122.083ZM124.121 124.374H123.633V121.142L122.655 121.501V121.061L124.045 120.539H124.121V124.374ZM127.4 122.697C127.299 122.817 127.178 122.914 127.036 122.988C126.896 123.061 126.742 123.098 126.575 123.098C126.354 123.098 126.162 123.043 125.998 122.935C125.835 122.827 125.709 122.675 125.62 122.479C125.531 122.281 125.487 122.064 125.487 121.826C125.487 121.571 125.535 121.341 125.631 121.137C125.729 120.932 125.867 120.776 126.045 120.667C126.223 120.559 126.431 120.505 126.669 120.505C127.047 120.505 127.344 120.646 127.56 120.93C127.779 121.211 127.888 121.595 127.888 122.083V122.225C127.888 122.967 127.741 123.51 127.448 123.853C127.154 124.193 126.711 124.368 126.118 124.377H126.024V123.968H126.126C126.527 123.961 126.834 123.857 127.049 123.656C127.264 123.453 127.381 123.133 127.4 122.697ZM126.653 122.697C126.816 122.697 126.965 122.647 127.102 122.547C127.24 122.447 127.34 122.324 127.403 122.177V121.983C127.403 121.665 127.334 121.407 127.196 121.207C127.058 121.008 126.883 120.909 126.672 120.909C126.458 120.909 126.287 120.991 126.158 121.155C126.028 121.318 125.964 121.533 125.964 121.8C125.964 122.06 126.026 122.275 126.15 122.445C126.276 122.613 126.444 122.697 126.653 122.697Z" fill="#F5F7F6"/>
<path d="M137.401 124.374H134.9V124.026L136.221 122.558C136.417 122.336 136.552 122.156 136.625 122.018C136.7 121.878 136.738 121.734 136.738 121.585C136.738 121.386 136.678 121.222 136.557 121.095C136.436 120.967 136.276 120.903 136.075 120.903C135.833 120.903 135.646 120.972 135.511 121.11C135.378 121.247 135.312 121.437 135.312 121.682H134.827C134.827 121.331 134.939 121.047 135.165 120.83C135.392 120.613 135.695 120.505 136.075 120.505C136.429 120.505 136.71 120.598 136.916 120.785C137.122 120.971 137.226 121.218 137.226 121.527C137.226 121.903 136.986 122.35 136.507 122.87L135.485 123.979H137.401V124.374ZM140.309 122.746C140.309 123.314 140.212 123.736 140.018 124.013C139.824 124.289 139.52 124.427 139.108 124.427C138.701 124.427 138.399 124.292 138.203 124.023C138.008 123.752 137.906 123.348 137.899 122.812V122.164C137.899 121.603 137.996 121.186 138.19 120.914C138.384 120.641 138.688 120.505 139.103 120.505C139.513 120.505 139.816 120.637 140.01 120.901C140.204 121.163 140.303 121.568 140.309 122.117V122.746ZM139.824 122.083C139.824 121.672 139.766 121.373 139.651 121.186C139.535 120.998 139.353 120.903 139.103 120.903C138.854 120.903 138.674 120.997 138.56 121.184C138.446 121.371 138.388 121.658 138.384 122.046V122.822C138.384 123.235 138.444 123.54 138.563 123.737C138.683 123.933 138.865 124.031 139.108 124.031C139.347 124.031 139.525 123.938 139.64 123.753C139.757 123.568 139.818 123.276 139.824 122.877V122.083ZM143.431 124.374H140.93V124.026L142.251 122.558C142.447 122.336 142.582 122.156 142.655 122.018C142.73 121.878 142.768 121.734 142.768 121.585C142.768 121.386 142.707 121.222 142.587 121.095C142.466 120.967 142.305 120.903 142.104 120.903C141.863 120.903 141.675 120.972 141.541 121.11C141.408 121.247 141.341 121.437 141.341 121.682H140.856C140.856 121.331 140.969 121.047 141.195 120.83C141.422 120.613 141.725 120.505 142.104 120.505C142.459 120.505 142.74 120.598 142.946 120.785C143.152 120.971 143.255 121.218 143.255 121.527C143.255 121.903 143.016 122.35 142.537 122.87L141.515 123.979H143.431V124.374ZM146.338 122.746C146.338 123.314 146.241 123.736 146.047 124.013C145.853 124.289 145.55 124.427 145.138 124.427C144.73 124.427 144.429 124.292 144.233 124.023C144.037 123.752 143.936 123.348 143.929 122.812V122.164C143.929 121.603 144.026 121.186 144.22 120.914C144.414 120.641 144.718 120.505 145.132 120.505C145.543 120.505 145.845 120.637 146.039 120.901C146.233 121.163 146.333 121.568 146.338 122.117V122.746ZM145.853 122.083C145.853 121.672 145.796 121.373 145.68 121.186C145.565 120.998 145.382 120.903 145.132 120.903C144.884 120.903 144.703 120.997 144.59 121.184C144.476 121.371 144.418 121.658 144.414 122.046V122.822C144.414 123.235 144.473 123.54 144.592 123.737C144.713 123.933 144.895 124.031 145.138 124.031C145.377 124.031 145.554 123.938 145.67 123.753C145.787 123.568 145.848 123.276 145.853 122.877V122.083Z" fill="#F5F7F6"/>
<path d="M155.65 124.374H153.149V124.026L154.471 122.558C154.666 122.336 154.801 122.156 154.874 122.018C154.949 121.878 154.987 121.734 154.987 121.585C154.987 121.386 154.927 121.222 154.806 121.095C154.686 120.967 154.525 120.903 154.324 120.903C154.083 120.903 153.895 120.972 153.76 121.11C153.627 121.247 153.561 121.437 153.561 121.682H153.076C153.076 121.331 153.189 121.047 153.414 120.83C153.641 120.613 153.944 120.505 154.324 120.505C154.679 120.505 154.959 120.598 155.165 120.785C155.372 120.971 155.475 121.218 155.475 121.527C155.475 121.903 155.235 122.35 154.756 122.87L153.734 123.979H155.65V124.374ZM158.558 122.746C158.558 123.314 158.461 123.736 158.267 124.013C158.073 124.289 157.769 124.427 157.357 124.427C156.95 124.427 156.648 124.292 156.453 124.023C156.257 123.752 156.155 123.348 156.148 122.812V122.164C156.148 121.603 156.245 121.186 156.439 120.914C156.633 120.641 156.938 120.505 157.352 120.505C157.762 120.505 158.065 120.637 158.259 120.901C158.453 121.163 158.552 121.568 158.558 122.117V122.746ZM158.073 122.083C158.073 121.672 158.015 121.373 157.9 121.186C157.784 120.998 157.602 120.903 157.352 120.903C157.104 120.903 156.923 120.997 156.809 121.184C156.695 121.371 156.637 121.658 156.633 122.046V122.822C156.633 123.235 156.693 123.54 156.812 123.737C156.932 123.933 157.114 124.031 157.357 124.031C157.596 124.031 157.774 123.938 157.889 123.753C158.006 123.568 158.067 123.276 158.073 122.877V122.083ZM161.68 124.374H159.179V124.026L160.5 122.558C160.696 122.336 160.831 122.156 160.904 122.018C160.979 121.878 161.017 121.734 161.017 121.585C161.017 121.386 160.957 121.222 160.836 121.095C160.715 120.967 160.555 120.903 160.354 120.903C160.112 120.903 159.924 120.972 159.79 121.11C159.657 121.247 159.591 121.437 159.591 121.682H159.106C159.106 121.331 159.218 121.047 159.444 120.83C159.671 120.613 159.974 120.505 160.354 120.505C160.708 120.505 160.989 120.598 161.195 120.785C161.401 120.971 161.504 121.218 161.504 121.527C161.504 121.903 161.265 122.35 160.786 122.87L159.764 123.979H161.68V124.374ZM163.788 124.374H163.3V121.142L162.322 121.501V121.061L163.712 120.539H163.788V124.374Z" fill="#F5F7F6"/>
<path d="M172.943 124.374H170.441V124.026L171.763 122.558C171.959 122.336 172.093 122.156 172.167 122.018C172.242 121.878 172.279 121.734 172.279 121.585C172.279 121.386 172.219 121.222 172.098 121.095C171.978 120.967 171.817 120.903 171.616 120.903C171.375 120.903 171.187 120.972 171.052 121.11C170.919 121.247 170.853 121.437 170.853 121.682H170.368C170.368 121.331 170.481 121.047 170.706 120.83C170.933 120.613 171.237 120.505 171.616 120.505C171.971 120.505 172.251 120.598 172.458 120.785C172.664 120.971 172.767 121.218 172.767 121.527C172.767 121.903 172.527 122.35 172.049 122.87L171.026 123.979H172.943V124.374ZM175.85 122.746C175.85 123.314 175.753 123.736 175.559 124.013C175.365 124.289 175.062 124.427 174.649 124.427C174.242 124.427 173.941 124.292 173.745 124.023C173.549 123.752 173.448 123.348 173.441 122.812V122.164C173.441 121.603 173.538 121.186 173.732 120.914C173.926 120.641 174.23 120.505 174.644 120.505C175.055 120.505 175.357 120.637 175.551 120.901C175.745 121.163 175.845 121.568 175.85 122.117V122.746ZM175.365 122.083C175.365 121.672 175.307 121.373 175.192 121.186C175.077 120.998 174.894 120.903 174.644 120.903C174.396 120.903 174.215 120.997 174.101 121.184C173.988 121.371 173.929 121.658 173.926 122.046V122.822C173.926 123.235 173.985 123.54 174.104 123.737C174.225 123.933 174.406 124.031 174.649 124.031C174.889 124.031 175.066 123.938 175.181 123.753C175.299 123.568 175.36 123.276 175.365 122.877V122.083ZM178.972 124.374H176.471V124.026L177.793 122.558C177.988 122.336 178.123 122.156 178.196 122.018C178.271 121.878 178.309 121.734 178.309 121.585C178.309 121.386 178.249 121.222 178.128 121.095C178.008 120.967 177.847 120.903 177.646 120.903C177.405 120.903 177.217 120.972 177.082 121.11C176.949 121.247 176.883 121.437 176.883 121.682H176.398C176.398 121.331 176.511 121.047 176.736 120.83C176.963 120.613 177.267 120.505 177.646 120.505C178.001 120.505 178.281 120.598 178.487 120.785C178.694 120.971 178.797 121.218 178.797 121.527C178.797 121.903 178.557 122.35 178.078 122.87L177.056 123.979H178.972V124.374ZM181.987 124.374H179.486V124.026L180.807 122.558C181.003 122.336 181.138 122.156 181.211 122.018C181.286 121.878 181.324 121.734 181.324 121.585C181.324 121.386 181.264 121.222 181.143 121.095C181.022 120.967 180.862 120.903 180.661 120.903C180.419 120.903 180.232 120.972 180.097 121.11C179.964 121.247 179.898 121.437 179.898 121.682H179.413C179.413 121.331 179.525 121.047 179.751 120.83C179.978 120.613 180.281 120.505 180.661 120.505C181.015 120.505 181.296 120.598 181.502 120.785C181.708 120.971 181.812 121.218 181.812 121.527C181.812 121.903 181.572 122.35 181.093 122.87L180.071 123.979H181.987V124.374Z" fill="#F5F7F6"/>
<path d="M190.273 124.374H187.772V124.026L189.093 122.558C189.289 122.336 189.423 122.156 189.497 122.018C189.572 121.878 189.61 121.734 189.61 121.585C189.61 121.386 189.549 121.222 189.429 121.095C189.308 120.967 189.147 120.903 188.946 120.903C188.705 120.903 188.517 120.972 188.383 121.11C188.25 121.247 188.183 121.437 188.183 121.682H187.698C187.698 121.331 187.811 121.047 188.037 120.83C188.264 120.613 188.567 120.505 188.946 120.505C189.301 120.505 189.582 120.598 189.788 120.785C189.994 120.971 190.097 121.218 190.097 121.527C190.097 121.903 189.858 122.35 189.379 122.87L188.356 123.979H190.273V124.374ZM193.18 122.746C193.18 123.314 193.083 123.736 192.889 124.013C192.695 124.289 192.392 124.427 191.98 124.427C191.572 124.427 191.271 124.292 191.075 124.023C190.879 123.752 190.778 123.348 190.771 122.812V122.164C190.771 121.603 190.868 121.186 191.062 120.914C191.256 120.641 191.56 120.505 191.974 120.505C192.385 120.505 192.687 120.637 192.881 120.901C193.075 121.163 193.175 121.568 193.18 122.117V122.746ZM192.695 122.083C192.695 121.672 192.638 121.373 192.522 121.186C192.407 120.998 192.224 120.903 191.974 120.903C191.726 120.903 191.545 120.997 191.432 121.184C191.318 121.371 191.259 121.658 191.256 122.046V122.822C191.256 123.235 191.315 123.54 191.434 123.737C191.555 123.933 191.737 124.031 191.98 124.031C192.219 124.031 192.396 123.938 192.512 123.753C192.629 123.568 192.69 123.276 192.695 122.877V122.083ZM196.303 124.374H193.802V124.026L195.123 122.558C195.319 122.336 195.453 122.156 195.527 122.018C195.602 121.878 195.639 121.734 195.639 121.585C195.639 121.386 195.579 121.222 195.458 121.095C195.338 120.967 195.177 120.903 194.976 120.903C194.735 120.903 194.547 120.972 194.412 121.11C194.28 121.247 194.213 121.437 194.213 121.682H193.728C193.728 121.331 193.841 121.047 194.066 120.83C194.294 120.613 194.597 120.505 194.976 120.505C195.331 120.505 195.611 120.598 195.818 120.785C196.024 120.971 196.127 121.218 196.127 121.527C196.127 121.903 195.888 122.35 195.409 122.87L194.386 123.979H196.303V124.374ZM197.522 122.23H197.886C198.115 122.226 198.295 122.166 198.426 122.049C198.557 121.932 198.623 121.774 198.623 121.574C198.623 121.127 198.4 120.903 197.954 120.903C197.745 120.903 197.577 120.964 197.451 121.084C197.327 121.203 197.265 121.361 197.265 121.559H196.78C196.78 121.256 196.89 121.006 197.11 120.806C197.332 120.605 197.613 120.505 197.954 120.505C198.314 120.505 198.597 120.6 198.801 120.791C199.006 120.981 199.108 121.246 199.108 121.585C199.108 121.751 199.054 121.912 198.945 122.067C198.839 122.223 198.693 122.339 198.507 122.416C198.717 122.482 198.879 122.593 198.992 122.746C199.108 122.9 199.165 123.088 199.165 123.31C199.165 123.653 199.054 123.924 198.83 124.125C198.606 124.326 198.315 124.427 197.957 124.427C197.599 124.427 197.307 124.33 197.081 124.136C196.858 123.942 196.746 123.686 196.746 123.368H197.233C197.233 123.569 197.299 123.729 197.43 123.85C197.561 123.971 197.737 124.031 197.957 124.031C198.191 124.031 198.37 123.97 198.494 123.847C198.618 123.725 198.68 123.549 198.68 123.32C198.68 123.099 198.612 122.928 198.476 122.809C198.34 122.69 198.143 122.629 197.886 122.626H197.522V122.23Z" fill="#F5F7F6"/>
<path d="M208.101 124.374H205.6V124.026L206.922 122.558C207.117 122.336 207.252 122.156 207.325 122.018C207.4 121.878 207.438 121.734 207.438 121.585C207.438 121.386 207.378 121.222 207.257 121.095C207.137 120.967 206.976 120.903 206.775 120.903C206.534 120.903 206.346 120.972 206.211 121.11C206.078 121.247 206.012 121.437 206.012 121.682H205.527C205.527 121.331 205.64 121.047 205.865 120.83C206.092 120.613 206.396 120.505 206.775 120.505C207.13 120.505 207.41 120.598 207.616 120.785C207.823 120.971 207.926 121.218 207.926 121.527C207.926 121.903 207.686 122.35 207.207 122.87L206.185 123.979H208.101V124.374ZM211.009 122.746C211.009 123.314 210.912 123.736 210.718 124.013C210.524 124.289 210.221 124.427 209.808 124.427C209.401 124.427 209.099 124.292 208.904 124.023C208.708 123.752 208.606 123.348 208.599 122.812V122.164C208.599 121.603 208.696 121.186 208.89 120.914C209.084 120.641 209.389 120.505 209.803 120.505C210.214 120.505 210.516 120.637 210.71 120.901C210.904 121.163 211.004 121.568 211.009 122.117V122.746ZM210.524 122.083C210.524 121.672 210.466 121.373 210.351 121.186C210.235 120.998 210.053 120.903 209.803 120.903C209.555 120.903 209.374 120.997 209.26 121.184C209.147 121.371 209.088 121.658 209.084 122.046V122.822C209.084 123.235 209.144 123.54 209.263 123.737C209.383 123.933 209.565 124.031 209.808 124.031C210.047 124.031 210.225 123.938 210.34 123.753C210.457 123.568 210.519 123.276 210.524 122.877V122.083ZM214.131 124.374H211.63V124.026L212.951 122.558C213.147 122.336 213.282 122.156 213.355 122.018C213.43 121.878 213.468 121.734 213.468 121.585C213.468 121.386 213.408 121.222 213.287 121.095C213.166 120.967 213.006 120.903 212.805 120.903C212.563 120.903 212.376 120.972 212.241 121.11C212.108 121.247 212.042 121.437 212.042 121.682H211.557C211.557 121.331 211.669 121.047 211.895 120.83C212.122 120.613 212.425 120.505 212.805 120.505C213.159 120.505 213.44 120.598 213.646 120.785C213.852 120.971 213.955 121.218 213.955 121.527C213.955 121.903 213.716 122.35 213.237 122.87L212.215 123.979H214.131V124.374ZM216.692 123.092H217.222V123.488H216.692V124.374H216.205V123.488H214.467V123.203L216.176 120.557H216.692V123.092ZM215.017 123.092H216.205V121.221L216.147 121.325L215.017 123.092Z" fill="#F5F7F6"/>
<path d="M31.2838 122.965C31.2838 123.533 31.1868 123.955 30.9928 124.231C30.7988 124.507 30.4955 124.645 30.0831 124.645C29.6758 124.645 29.3743 124.511 29.1786 124.242C28.9828 123.971 28.8815 123.567 28.8745 123.031V122.383C28.8745 121.822 28.9715 121.405 29.1655 121.132C29.3595 120.86 29.6636 120.723 30.0778 120.723C30.4885 120.723 30.7909 120.855 30.9849 121.119C31.1789 121.382 31.2785 121.787 31.2838 122.336V122.965ZM30.7988 122.302C30.7988 121.891 30.7411 121.592 30.6257 121.405C30.5104 121.216 30.3278 121.122 30.0778 121.122C29.8296 121.122 29.6487 121.215 29.5351 121.402C29.4215 121.589 29.363 121.877 29.3595 122.265V123.041C29.3595 123.453 29.4189 123.758 29.5378 123.956C29.6584 124.152 29.8401 124.25 30.0831 124.25C30.3225 124.25 30.4999 124.157 30.6153 123.972C30.7324 123.786 30.7935 123.495 30.7988 123.096V122.302Z" fill="#F5F7F6"/>
<path d="M26.5057 108.679H26.018V105.446L25.0402 105.806V105.365L26.4296 104.843H26.5057V108.679ZM30.3202 107.051C30.3202 107.619 30.2232 108.041 30.0292 108.317C29.8351 108.593 29.5319 108.731 29.1194 108.731C28.7122 108.731 28.4107 108.597 28.215 108.328C28.0192 108.057 27.9179 107.653 27.9109 107.116V106.469C27.9109 105.908 28.0079 105.491 28.2019 105.218C28.3959 104.946 28.7 104.809 29.1142 104.809C29.5249 104.809 29.8273 104.941 30.0213 105.205C30.2153 105.467 30.3149 105.873 30.3202 106.422V107.051ZM29.8351 106.388C29.8351 105.977 29.7775 105.678 29.6621 105.491C29.5468 105.302 29.3641 105.208 29.1142 105.208C28.866 105.208 28.6851 105.301 28.5715 105.488C28.4579 105.675 28.3994 105.963 28.3959 106.351V107.127C28.3959 107.539 28.4553 107.844 28.5741 108.042C28.6947 108.238 28.8765 108.335 29.1194 108.335C29.3589 108.335 29.5363 108.243 29.6516 108.058C29.7687 107.872 29.8299 107.58 29.8351 107.182V106.388Z" fill="#F5F7F6"/>
<path d="M27.4128 95.5172H24.9117V95.1685L26.233 93.7004C26.4288 93.4784 26.5633 93.2984 26.6367 93.1604C26.7119 93.0205 26.7495 92.8763 26.7495 92.7278C26.7495 92.5285 26.6892 92.3651 26.5686 92.2375C26.448 92.1099 26.2872 92.0462 26.0862 92.0462C25.845 92.0462 25.6571 92.1152 25.5225 92.2533C25.3897 92.3896 25.3233 92.5801 25.3233 92.8248H24.8383C24.8383 92.4735 24.951 92.1895 25.1765 91.9727C25.4037 91.756 25.7069 91.6477 26.0862 91.6477C26.441 91.6477 26.7215 91.7412 26.9277 91.9282C27.134 92.1134 27.2371 92.3608 27.2371 92.6701C27.2371 93.0459 26.9977 93.4933 26.5188 94.0124L25.4963 95.1213H27.4128V95.5172ZM30.3202 93.8892C30.3202 94.4572 30.2232 94.8793 30.0292 95.1554C29.8351 95.4316 29.5319 95.5696 29.1194 95.5696C28.7122 95.5696 28.4107 95.4351 28.215 95.1659C28.0192 94.895 27.9179 94.4913 27.9109 93.9547V93.3072C27.9109 92.7461 28.0079 92.3293 28.2019 92.0566C28.3959 91.784 28.7 91.6477 29.1142 91.6477C29.5249 91.6477 29.8273 91.7796 30.0213 92.0435C30.2153 92.3057 30.3149 92.7112 30.3202 93.26V93.8892ZM29.8351 93.2259C29.8351 92.8152 29.7775 92.5163 29.6621 92.3293C29.5468 92.1405 29.3641 92.0462 29.1142 92.0462C28.866 92.0462 28.6851 92.1397 28.5715 92.3267C28.4579 92.5137 28.3994 92.8012 28.3959 93.1892V93.9652C28.3959 94.3777 28.4553 94.6827 28.5741 94.8802C28.6947 95.0759 28.8765 95.1738 29.1194 95.1738C29.3589 95.1738 29.5363 95.0811 29.6516 94.8959C29.7687 94.7106 29.8299 94.4187 29.8351 94.0203V93.2259Z" fill="#F5F7F6"/>
<path d="M25.6169 79.7532H25.9813C26.2103 79.7497 26.3903 79.6894 26.5214 79.5723C26.6525 79.4552 26.718 79.297 26.718 79.0978C26.718 78.6504 26.4952 78.4266 26.0495 78.4266C25.8398 78.4266 25.672 78.4869 25.5461 78.6075C25.422 78.7264 25.36 78.8846 25.36 79.0821H24.875C24.875 78.7797 24.9851 78.5289 25.2053 78.3296C25.4273 78.1287 25.7087 78.0282 26.0495 78.0282C26.4095 78.0282 26.6918 78.1234 26.8963 78.3139C27.1008 78.5044 27.203 78.7692 27.203 79.1083C27.203 79.2743 27.1488 79.4351 27.0405 79.5907C26.9339 79.7462 26.7879 79.8624 26.6027 79.9393C26.8124 80.0058 26.9741 80.1159 27.0877 80.2697C27.203 80.4235 27.2607 80.6114 27.2607 80.8333C27.2607 81.1759 27.1488 81.4477 26.9251 81.6486C26.7014 81.8496 26.4104 81.9501 26.0521 81.9501C25.6938 81.9501 25.4019 81.8531 25.1765 81.6591C24.9528 81.4651 24.8409 81.2091 24.8409 80.891H25.3285C25.3285 81.092 25.3941 81.2528 25.5252 81.3734C25.6562 81.494 25.8319 81.5543 26.0521 81.5543C26.2863 81.5543 26.4655 81.4931 26.5896 81.3708C26.7136 81.2484 26.7757 81.0728 26.7757 80.8438C26.7757 80.6218 26.7075 80.4514 26.5712 80.3326C26.4349 80.2137 26.2383 80.1526 25.9813 80.1491H25.6169V79.7532ZM30.3202 80.2697C30.3202 80.8377 30.2232 81.2598 30.0292 81.5359C29.8351 81.8121 29.5319 81.9501 29.1194 81.9501C28.7122 81.9501 28.4107 81.8156 28.215 81.5464C28.0192 81.2755 27.9179 80.8718 27.9109 80.3352V79.6877C27.9109 79.1266 28.0079 78.7098 28.2019 78.4371C28.3959 78.1645 28.7 78.0282 29.1142 78.0282C29.5249 78.0282 29.8273 78.1601 30.0213 78.424C30.2153 78.6862 30.3149 79.0917 30.3202 79.6405V80.2697ZM29.8351 79.6064C29.8351 79.1957 29.7775 78.8968 29.6621 78.7098C29.5468 78.521 29.3641 78.4266 29.1142 78.4266C28.866 78.4266 28.6851 78.5202 28.5715 78.7072C28.4579 78.8942 28.3994 79.1817 28.3959 79.5697V80.3457C28.3959 80.7582 28.4553 81.0631 28.5741 81.2606C28.6947 81.4564 28.8765 81.5543 29.1194 81.5543C29.3589 81.5543 29.5363 81.4616 29.6516 81.2764C29.7687 81.0911 29.8299 80.7992 29.8351 80.4007V79.6064Z" fill="#F5F7F6"/>
<path d="M26.9592 67.4561H27.4888V67.8519H26.9592V68.738H26.4716V67.8519H24.7334V67.5662L26.4427 64.9209H26.9592V67.4561ZM25.284 67.4561H26.4716V65.5842L26.4139 65.6891L25.284 67.4561ZM30.3202 67.11C30.3202 67.678 30.2232 68.1001 30.0292 68.3763C29.8351 68.6524 29.5319 68.7905 29.1194 68.7905C28.7122 68.7905 28.4107 68.6559 28.215 68.3867C28.0192 68.1158 27.9179 67.7121 27.9109 67.1755V66.528C27.9109 65.967 28.0079 65.5501 28.2019 65.2775C28.3959 65.0048 28.7 64.8685 29.1142 64.8685C29.5249 64.8685 29.8273 65.0004 30.0213 65.2644C30.2153 65.5265 30.3149 65.932 30.3202 66.4808V67.11ZM29.8351 66.4467C29.8351 66.036 29.7775 65.7371 29.6621 65.5501C29.5468 65.3614 29.3641 65.267 29.1142 65.267C28.866 65.267 28.6851 65.3605 28.5715 65.5475C28.4579 65.7345 28.3994 66.022 28.3959 66.41V67.186C28.3959 67.5985 28.4553 67.9035 28.5741 68.101C28.6947 68.2967 28.8765 68.3946 29.1194 68.3946C29.3589 68.3946 29.5363 68.302 29.6516 68.1167C29.7687 67.9314 29.8299 67.6396 29.8351 67.2411V66.4467Z" fill="#F5F7F6"/>
<path d="M25.1345 54.1984L25.3285 52.2951H27.2843V52.7434H25.7401L25.6248 53.7842C25.8118 53.6741 26.0242 53.619 26.2618 53.619C26.6097 53.619 26.8858 53.7344 27.0903 53.9651C27.2948 54.194 27.397 54.5042 27.397 54.8957C27.397 55.289 27.2904 55.5992 27.0772 55.8264C26.8657 56.0519 26.5695 56.1646 26.1884 56.1646C25.8511 56.1646 25.5759 56.0711 25.3626 55.8841C25.1494 55.6971 25.0279 55.4384 24.9982 55.1081H25.457C25.4867 55.3266 25.5645 55.4917 25.6903 55.6036C25.8162 55.7137 25.9822 55.7687 26.1884 55.7687C26.4139 55.7687 26.5904 55.6918 26.718 55.538C26.8473 55.3842 26.912 55.1719 26.912 54.901C26.912 54.6458 26.8421 54.4413 26.7023 54.2875C26.5642 54.132 26.3798 54.0542 26.1491 54.0542C25.9376 54.0542 25.7716 54.1005 25.651 54.1931L25.5225 54.298L25.1345 54.1984ZM30.3202 54.4841C30.3202 55.0522 30.2232 55.4742 30.0292 55.7504C29.8351 56.0265 29.5319 56.1646 29.1194 56.1646C28.7122 56.1646 28.4107 56.03 28.215 55.7609C28.0192 55.49 27.9179 55.0862 27.9109 54.5497V53.9021C27.9109 53.3411 28.0079 52.9243 28.2019 52.6516C28.3959 52.379 28.7 52.2426 29.1142 52.2426C29.5249 52.2426 29.8273 52.3746 30.0213 52.6385C30.2153 52.9007 30.3149 53.3061 30.3202 53.8549V54.4841ZM29.8351 53.8209C29.8351 53.4101 29.7775 53.1113 29.6621 52.9243C29.5468 52.7355 29.3641 52.6411 29.1142 52.6411C28.866 52.6411 28.6851 52.7346 28.5715 52.9216C28.4579 53.1087 28.3994 53.3962 28.3959 53.7842V54.5602C28.3959 54.9726 28.4553 55.2776 28.5741 55.4751C28.6947 55.6709 28.8765 55.7687 29.1194 55.7687C29.3589 55.7687 29.5363 55.6761 29.6516 55.4909C29.7687 55.3056 29.8299 55.0137 29.8351 54.6152V53.8209Z" fill="#F5F7F6"/>
<path d="M26.815 39.1323V39.5439H26.7259C26.3484 39.5509 26.0477 39.6627 25.824 39.8795C25.6003 40.0962 25.471 40.4012 25.436 40.7944C25.637 40.5637 25.9114 40.4484 26.2592 40.4484C26.5913 40.4484 26.8561 40.5655 27.0536 40.7997C27.2528 41.0339 27.3525 41.3362 27.3525 41.7067C27.3525 42.1 27.245 42.4146 27.03 42.6505C26.8168 42.8865 26.5301 43.0045 26.1701 43.0045C25.8048 43.0045 25.5086 42.8646 25.2814 42.585C25.0541 42.3036 24.9405 41.9418 24.9405 41.4996V41.3135C24.9405 40.6109 25.09 40.0743 25.3888 39.7038C25.6895 39.3315 26.136 39.141 26.7285 39.1323H26.815ZM26.178 40.8521C26.0119 40.8521 25.859 40.9019 25.7192 41.0015C25.5793 41.1011 25.4823 41.2261 25.4282 41.3764V41.5547C25.4282 41.8693 25.4989 42.1227 25.6405 42.315C25.7821 42.5072 25.9586 42.6033 26.1701 42.6033C26.3886 42.6033 26.5598 42.523 26.6839 42.3622C26.8098 42.2014 26.8727 41.9908 26.8727 41.7303C26.8727 41.4682 26.8089 41.2567 26.6813 41.0959C26.5555 40.9334 26.3877 40.8521 26.178 40.8521ZM30.3202 41.324C30.3202 41.892 30.2232 42.3141 30.0292 42.5902C29.8351 42.8664 29.5319 43.0045 29.1194 43.0045C28.7122 43.0045 28.4107 42.8699 28.215 42.6007C28.0192 42.3298 27.9179 41.9261 27.9109 41.3895V40.742C27.9109 40.1809 28.0079 39.7641 28.2019 39.4915C28.3959 39.2188 28.7 39.0825 29.1142 39.0825C29.5249 39.0825 29.8273 39.2144 30.0213 39.4783C30.2153 39.7405 30.3149 40.146 30.3202 40.6948V41.324ZM29.8351 40.6607C29.8351 40.25 29.7775 39.9511 29.6621 39.7641C29.5468 39.5753 29.3641 39.481 29.1142 39.481C28.866 39.481 28.6851 39.5745 28.5715 39.7615C28.4579 39.9485 28.3994 40.236 28.3959 40.624V41.4C28.3959 41.8125 28.4553 42.1175 28.5741 42.315C28.6947 42.5107 28.8765 42.6086 29.1194 42.6086C29.3589 42.6086 29.5363 42.516 29.6516 42.3307C29.7687 42.1454 29.8299 41.8536 29.8351 41.4551V40.6607Z" fill="#F5F7F6"/>
<path d="M27.376 25.7877L25.7952 29.3322H25.2866L26.8622 25.9135H24.7963V25.515H27.376V25.7877ZM30.3202 27.7041C30.3202 28.2721 30.2232 28.6942 30.0292 28.9704C29.8351 29.2465 29.5319 29.3846 29.1194 29.3846C28.7122 29.3846 28.4107 29.25 28.215 28.9809C28.0192 28.7099 27.9179 28.3062 27.9109 27.7697V27.1221C27.9109 26.5611 28.0079 26.1442 28.2019 25.8716C28.3959 25.5989 28.7 25.4626 29.1142 25.4626C29.5249 25.4626 29.8273 25.5946 30.0213 25.8585C30.2153 26.1206 30.3149 26.5261 30.3202 27.0749V27.7041ZM29.8351 27.0408C29.8351 26.6301 29.7775 26.3312 29.6621 26.1442C29.5468 25.9555 29.3641 25.8611 29.1142 25.8611C28.866 25.8611 28.6851 25.9546 28.5715 26.1416C28.4579 26.3286 28.3994 26.6161 28.3959 27.0041V27.7801C28.3959 28.1926 28.4553 28.4976 28.5741 28.6951C28.6947 28.8908 28.8765 28.9887 29.1194 28.9887C29.3589 28.9887 29.5363 28.8961 29.6516 28.7108C29.7687 28.5256 29.8299 28.2337 29.8351 27.8352V27.0408Z" fill="#F5F7F6"/>
<path d="M210.65 61.0426H192.426L174.825 48.1871L157.379 61.9591L139.317 55.3813L122.179 81.3924H104.124L86.3862 94.5155L69.0941 74.4739L51.4939 81.2058V114.833H210.764L210.65 61.0426Z" fill="url(#paint0_linear_1_1400)"/>
<path d="M86.3132 95.14L68.9563 75.0173L51.6561 81.6356L51.3317 80.7759L69.232 73.9305L86.4511 93.899L103.97 80.9381H121.935L139.138 54.8216L157.298 61.44L174.809 47.6112L192.572 60.5802H210.65V61.5049H192.272L174.833 48.7629L157.46 62.4781L139.503 55.9328L122.43 81.8546H104.27L86.3132 95.14Z" fill="url(#paint1_linear_1_1400)"/>
<path d="M53.4567 81.2058C53.4567 82.2927 52.5807 83.1686 51.4939 83.1686C50.4071 83.1686 49.5311 82.2927 49.5311 81.2058C49.5311 80.119 50.4071 79.243 51.4939 79.243C52.5807 79.243 53.4567 80.119 53.4567 81.2058Z" fill="#F5F7F6"/>
<path d="M71.0569 74.474C71.0569 75.5608 70.181 76.4367 69.0942 76.4367C68.0073 76.4367 67.1313 75.5608 67.1313 74.474C67.1313 73.3871 68.0073 72.5112 69.0942 72.5112C70.181 72.5031 71.0569 73.3871 71.0569 74.474Z" fill="#F5F7F6"/>
<path d="M88.349 94.5155C88.349 95.6024 87.4649 96.4783 86.3862 96.4783C85.2994 96.4783 84.4234 95.5943 84.4234 94.5155C84.4234 93.4287 85.2994 92.5527 86.3862 92.5527C87.473 92.5527 88.349 93.4287 88.349 94.5155Z" fill="#F5F7F6"/>
<path d="M106.087 81.3924C106.087 82.4792 105.211 83.3551 104.124 83.3551C103.037 83.3551 102.161 82.4711 102.161 81.3924C102.161 80.3055 103.037 79.4296 104.124 79.4296C105.211 79.4296 106.087 80.3136 106.087 81.3924Z" fill="#F5F7F6"/>
<path d="M124.15 81.3924C124.15 82.4792 123.274 83.3551 122.187 83.3551C121.1 83.3551 120.224 82.4711 120.224 81.3924C120.224 80.3055 121.108 79.4296 122.187 79.4296C123.266 79.4296 124.15 80.3136 124.15 81.3924Z" fill="#F5F7F6"/>
<path d="M141.288 55.3812C141.288 56.4681 140.412 57.344 139.325 57.344C138.238 57.344 137.362 56.46 137.362 55.3812C137.362 54.2944 138.238 53.4185 139.325 53.4185C140.404 53.4185 141.288 54.2944 141.288 55.3812Z" fill="#F5F7F6"/>
<path d="M159.342 61.9591C159.342 63.046 158.466 63.9219 157.379 63.9219C156.292 63.9219 155.416 63.046 155.416 61.9591C155.416 60.8723 156.292 59.9963 157.379 59.9963C158.466 59.9963 159.342 60.8723 159.342 61.9591Z" fill="#F5F7F6"/>
<path d="M176.788 48.1872C176.788 49.274 175.904 50.1499 174.825 50.1499C173.739 50.1499 172.863 49.2659 172.863 48.1872C172.863 47.1003 173.739 46.2244 174.825 46.2244C175.912 46.2244 176.788 47.1003 176.788 48.1872Z" fill="#F5F7F6"/>
<path d="M194.388 61.0425C194.388 62.1293 193.512 63.0053 192.426 63.0053C191.339 63.0053 190.463 62.1293 190.463 61.0425C190.463 59.9557 191.339 59.0797 192.426 59.0797C193.504 59.0797 194.388 59.9557 194.388 61.0425Z" fill="#F5F7F6"/>
<path d="M212.613 61.1155C212.613 62.2023 211.729 63.0783 210.65 63.0783C209.564 63.0783 208.688 62.1942 208.688 61.1155C208.688 60.0287 209.564 59.1527 210.65 59.1527C211.729 59.1527 212.613 60.0368 212.613 61.1155Z" fill="#F5F7F6"/>
<defs>
<linearGradient id="paint0_linear_1_1400" x1="131.128" y1="125.163" x2="131.128" y2="59.6623" gradientUnits="userSpaceOnUse">
<stop offset="0.0101" stop-color="white" stop-opacity="0"/>
<stop offset="1" stop-color="white"/>
</linearGradient>
<linearGradient id="paint1_linear_1_1400" x1="51.6091" y1="71.3757" x2="176.256" y2="71.3757" gradientUnits="userSpaceOnUse">
<stop stop-color="#00EAD1"/>
<stop offset="0.1291" stop-color="#00E0D1"/>
<stop offset="0.3516" stop-color="#00C4CF"/>
<stop offset="0.6406" stop-color="#0097CE"/>
<stop offset="0.9819" stop-color="#0058CB"/>
<stop offset="0.9999" stop-color="#0055CB"/>
</linearGradient>
</defs>
</svg>
