<svg width="193" height="116" viewBox="0 0 193 116" fill="none" xmlns="http://www.w3.org/2000/svg">
<rect y="0.80957" width="192.224" height="114.361" rx="14.7953" fill="black"/>
<rect x="0.308235" y="1.11781" width="191.607" height="113.745" rx="14.4871" stroke="white" stroke-opacity="0.5" stroke-width="0.616471"/>
<path d="M31.8806 28.2841H31.4832V83.6559H31.8806V28.2841Z" fill="white"/>
<path d="M165.699 83.4612H31.5642V83.8586H165.699V83.4612Z" fill="white"/>
<path d="M165.699 72.382H31.5642V72.7794H165.699V72.382Z" fill="white"/>
<path d="M165.699 61.3108H31.5642V61.7082H165.699V61.3108Z" fill="white"/>
<path d="M165.699 50.2397H31.5642V50.6372H165.699V50.2397Z" fill="white"/>
<path d="M165.699 39.1605H31.5642V39.5579H165.699V39.1605Z" fill="white"/>
<path d="M165.699 28.0894H31.5646V28.4868H165.699V28.0894Z" fill="white"/>
<path d="M48.6373 28.2841H48.2399V83.6559H48.6373V28.2841Z" fill="white"/>
<path d="M65.394 28.2841H64.9966V83.6559H65.394V28.2841Z" fill="white"/>
<path d="M82.1507 28.2841H81.7533V83.6559H82.1507V28.2841Z" fill="white"/>
<path d="M98.9074 28.2841H98.51V83.6559H98.9074V28.2841Z" fill="white"/>
<path d="M115.664 28.2841H115.267V83.6559H115.664V28.2841Z" fill="white"/>
<path d="M132.421 28.2841H132.024V83.6559H132.421V28.2841Z" fill="white"/>
<path d="M149.178 28.2841H148.78V83.6559H149.178V28.2841Z" fill="white"/>
<path d="M165.934 28.2841H165.537V83.6559H165.934V28.2841Z" fill="white"/>
<path d="M32.132 61.0192L49.0023 49.0315L65.0858 60.8164H82.3535L99.2319 37.855L115.307 49.0315L132.583 37.6522H165.732V83.6481H31.7021L32.132 61.0192Z" fill="url(#paint0_linear_1_1495)"/>
<path d="M165.732 83.6477V48.9663H149.851L132.916 60.6133L115.705 37.5789L99.0292 49.7774H82.3535L65.1507 72.8118L49.0023 60.6133L31.7833 72.536L31.7021 83.6477H165.732Z" fill="url(#paint1_linear_1_1495)"/>
<path d="M36.3403 86.5308H36.651V88.1905C36.651 88.4148 36.5834 88.5902 36.4482 88.7169C36.314 88.8435 36.1348 88.9068 35.9105 88.9068C35.6776 88.9068 35.4963 88.8473 35.3664 88.7281C35.2366 88.609 35.1716 88.4421 35.1716 88.2275H35.4807C35.4807 88.3616 35.5172 88.4663 35.5902 88.5414C35.6642 88.6165 35.771 88.6541 35.9105 88.6541C36.0382 88.6541 36.1412 88.6138 36.2196 88.5334C36.299 88.4529 36.3393 88.3402 36.3403 88.1953V86.5308ZM38.4363 88.2629H37.4543L37.2338 88.8746H36.915L37.8101 86.5308H38.0805L38.9772 88.8746H38.66L38.4363 88.2629ZM37.5477 88.0086H38.3445L37.9453 86.9123L37.5477 88.0086ZM41.094 88.8746H40.7833L39.6034 87.0685V88.8746H39.2927V86.5308H39.6034L40.7866 88.345V86.5308H41.094V88.8746Z" fill="#F5F7F6"/>
<path d="M53.7536 87.8395H52.77V88.8746H52.4609V86.5308H53.9129V86.7851H52.77V87.5868H53.7536V87.8395ZM55.608 87.7912H54.5923V88.6219H55.7722V88.8746H54.2832V86.5308H55.7561V86.7851H54.5923V87.5385H55.608V87.7912ZM56.157 88.8746V86.5308H56.9232C57.1776 86.5308 57.3686 86.5834 57.4963 86.6885C57.6251 86.7937 57.6895 86.9493 57.6895 87.1554C57.6895 87.2648 57.6584 87.362 57.5961 87.4468C57.5339 87.5305 57.4491 87.5954 57.3418 87.6415C57.4684 87.677 57.5682 87.7446 57.6412 87.8444C57.7152 87.9431 57.7523 88.0612 57.7523 88.1985C57.7523 88.4089 57.6841 88.5741 57.5478 88.6943C57.4115 88.8145 57.2189 88.8746 56.9699 88.8746H56.157ZM56.466 87.7784V88.6219H56.9763C57.1202 88.6219 57.2334 88.5849 57.316 88.5108C57.3997 88.4357 57.4416 88.3327 57.4416 88.2017C57.4416 87.9195 57.2881 87.7784 56.9812 87.7784H56.466ZM56.466 87.5305H56.9329C57.0681 87.5305 57.176 87.4967 57.2564 87.429C57.338 87.3614 57.3788 87.2697 57.3788 87.1538C57.3788 87.025 57.3412 86.9316 57.2661 86.8737C57.191 86.8146 57.0767 86.7851 56.9232 86.7851H56.466V87.5305Z" fill="#F5F7F6"/>
<path d="M70.7865 86.5308L71.5528 88.4432L72.319 86.5308H72.7199V88.8746H72.4108V87.9619L72.4398 86.9767L71.6703 88.8746H71.4336L70.6658 86.9815L70.6964 87.9619V88.8746H70.3873V86.5308H70.7865ZM74.5888 88.2629H73.6069L73.3863 88.8746H73.0676L73.9626 86.5308H74.2331L75.1297 88.8746H74.8126L74.5888 88.2629ZM73.7002 88.0086H74.4971L74.0978 86.9123L73.7002 88.0086ZM76.3049 87.9265H75.7543V88.8746H75.4436V86.5308H76.2195C76.4835 86.5308 76.6864 86.5909 76.828 86.7111C76.9708 86.8313 77.0421 87.0062 77.0421 87.2359C77.0421 87.3818 77.0024 87.509 76.923 87.6174C76.8447 87.7258 76.7352 87.8068 76.5946 87.8605L77.1452 88.8553V88.8746H76.8136L76.3049 87.9265ZM75.7543 87.6737H76.2292C76.3827 87.6737 76.5045 87.634 76.5946 87.5546C76.6858 87.4752 76.7315 87.3689 76.7315 87.2359C76.7315 87.091 76.688 86.9799 76.6011 86.9026C76.5152 86.8254 76.3907 86.7862 76.2276 86.7851H75.7543V87.6737Z" fill="#F5F7F6"/>
<path d="M88.7841 88.2629H87.8021L87.5816 88.8746H87.2628L88.1579 86.5308H88.4283L89.325 88.8746H89.0079L88.7841 88.2629ZM87.8955 88.0086H88.6923L88.2931 86.9123L87.8955 88.0086ZM89.9496 87.9571V88.8746H89.6405V86.5308H90.505C90.7614 86.5308 90.9621 86.5963 91.107 86.7272C91.253 86.8581 91.3259 87.0314 91.3259 87.2471C91.3259 87.4747 91.2546 87.6501 91.1118 87.7735C90.9702 87.8959 90.7668 87.9571 90.5017 87.9571H89.9496ZM89.9496 87.7043H90.505C90.6702 87.7043 90.7969 87.6657 90.8849 87.5884C90.9729 87.5101 91.0169 87.3974 91.0169 87.2504C91.0169 87.1108 90.9729 86.9992 90.8849 86.9155C90.7969 86.8318 90.6761 86.7884 90.5227 86.7851H89.9496V87.7043ZM92.58 87.9265H92.0294V88.8746H91.7187V86.5308H92.4947C92.7587 86.5308 92.9615 86.5909 93.1031 86.7111C93.2459 86.8313 93.3173 87.0062 93.3173 87.2359C93.3173 87.3818 93.2775 87.509 93.1981 87.6174C93.1198 87.7258 93.0103 87.8068 92.8697 87.8605L93.4203 88.8553V88.8746H93.0887L92.58 87.9265ZM92.0294 87.6737H92.5043C92.6578 87.6737 92.7796 87.634 92.8697 87.5546C92.961 87.4752 93.0066 87.3689 93.0066 87.2359C93.0066 87.091 92.9631 86.9799 92.8762 86.9026C92.7903 86.8254 92.6658 86.7862 92.5027 86.7851H92.0294V87.6737Z" fill="#F5F7F6"/>
<path d="M106.64 86.5308L107.406 88.4432L108.172 86.5308H108.573V88.8746H108.264V87.9619L108.293 86.9767L107.524 88.8746H107.287L106.519 86.9815L106.55 87.9619V88.8746H106.241V86.5308H106.64ZM110.442 88.2629H109.46L109.24 88.8746H108.921L109.816 86.5308H110.086L110.983 88.8746H110.666L110.442 88.2629ZM109.554 88.0086H110.35L109.951 86.9123L109.554 88.0086ZM111.862 87.7075L112.474 86.5308H112.825L112.017 88.0005V88.8746H111.708V88.0005L110.899 86.5308H111.254L111.862 87.7075Z" fill="#F5F7F6"/>
<path d="M124.325 86.5308H124.636V88.1905C124.636 88.4148 124.568 88.5902 124.433 88.7169C124.299 88.8435 124.12 88.9068 123.895 88.9068C123.662 88.9068 123.481 88.8473 123.351 88.7281C123.221 88.609 123.156 88.4421 123.156 88.2275H123.466C123.466 88.3616 123.502 88.4663 123.575 88.5414C123.649 88.6165 123.756 88.6541 123.895 88.6541C124.023 88.6541 124.126 88.6138 124.204 88.5334C124.284 88.4529 124.324 88.3402 124.325 88.1953V86.5308ZM126.812 86.5308V88.1245C126.811 88.3456 126.741 88.5264 126.603 88.667C126.466 88.8076 126.279 88.8864 126.043 88.9036L125.961 88.9068C125.704 88.9068 125.5 88.8376 125.347 88.6992C125.195 88.5607 125.118 88.3702 125.116 88.1277V86.5308H125.421V88.118C125.421 88.2876 125.468 88.4196 125.562 88.514C125.655 88.6074 125.788 88.6541 125.961 88.6541C126.136 88.6541 126.269 88.6074 126.362 88.514C126.455 88.4207 126.502 88.2892 126.502 88.1196V86.5308H126.812ZM129.101 88.8746H128.791L127.611 87.0685V88.8746H127.3V86.5308H127.611L128.794 88.345V86.5308H129.101V88.8746Z" fill="#F5F7F6"/>
<path d="M142.252 86.5308H142.563V88.1905C142.563 88.4148 142.495 88.5902 142.36 88.7169C142.226 88.8435 142.047 88.9068 141.822 88.9068C141.589 88.9068 141.408 88.8473 141.278 88.7281C141.148 88.609 141.083 88.4421 141.083 88.2275H141.392C141.392 88.3616 141.429 88.4663 141.502 88.5414C141.576 88.6165 141.683 88.6541 141.822 88.6541C141.95 88.6541 142.053 88.6138 142.131 88.5334C142.211 88.4529 142.251 88.3402 142.252 88.1953V86.5308ZM144.739 86.5308V88.1245C144.738 88.3456 144.668 88.5264 144.53 88.667C144.393 88.8076 144.206 88.8864 143.97 88.9036L143.888 88.9068C143.631 88.9068 143.427 88.8376 143.274 88.6992C143.122 88.5607 143.045 88.3702 143.042 88.1277V86.5308H143.348V88.118C143.348 88.2876 143.395 88.4196 143.488 88.514C143.582 88.6074 143.715 88.6541 143.888 88.6541C144.063 88.6541 144.196 88.6074 144.288 88.514C144.382 88.4207 144.429 88.2892 144.429 88.1196V86.5308H144.739ZM145.538 88.6219H146.648V88.8746H145.227V86.5308H145.538V88.6219Z" fill="#F5F7F6"/>
<path d="M159.667 88.2629H158.685L158.464 88.8746H158.146L159.041 86.5308H159.311L160.208 88.8746H159.891L159.667 88.2629ZM158.778 88.0086H159.575L159.176 86.9123L158.778 88.0086ZM162.144 86.5308V88.1245C162.143 88.3456 162.074 88.5264 161.935 88.667C161.798 88.8076 161.611 88.8864 161.375 88.9036L161.293 88.9068C161.036 88.9068 160.832 88.8376 160.679 88.6992C160.527 88.5607 160.45 88.3702 160.448 88.1277V86.5308H160.754V88.118C160.754 88.2876 160.8 88.4196 160.894 88.514C160.987 88.6074 161.12 88.6541 161.293 88.6541C161.468 88.6541 161.601 88.6074 161.694 88.514C161.787 88.4207 161.834 88.2892 161.834 88.1196V86.5308H162.144ZM164.363 88.5672C164.283 88.6809 164.172 88.7662 164.029 88.8231C163.888 88.8789 163.722 88.9068 163.534 88.9068C163.343 88.9068 163.173 88.8623 163.025 88.7732C162.877 88.6831 162.762 88.5554 162.68 88.3901C162.6 88.2248 162.559 88.0333 162.556 87.8154V87.611C162.556 87.2579 162.639 86.9842 162.803 86.79C162.968 86.5957 163.2 86.4986 163.498 86.4986C163.743 86.4986 163.94 86.5614 164.089 86.6869C164.238 86.8114 164.329 86.9885 164.363 87.2182H164.054C163.996 86.908 163.811 86.7529 163.5 86.7529C163.293 86.7529 163.135 86.8259 163.028 86.9719C162.922 87.1167 162.868 87.3271 162.867 87.6029V87.7945C162.867 88.0574 162.927 88.2667 163.047 88.4223C163.168 88.5768 163.33 88.6541 163.535 88.6541C163.651 88.6541 163.753 88.6412 163.839 88.6155C163.926 88.5897 163.998 88.5462 164.055 88.4851V87.9587H163.513V87.7075H164.363V88.5672Z" fill="#F5F7F6"/>
<path d="M27.6187 82.9951C27.6187 83.3439 27.5592 83.603 27.4401 83.7726C27.3209 83.9422 27.1347 84.0269 26.8815 84.0269C26.6314 84.0269 26.4463 83.9443 26.3261 83.779C26.2059 83.6127 26.1436 83.3648 26.1393 83.0353V82.6377C26.1393 82.2932 26.1989 82.0373 26.318 81.8698C26.4372 81.7024 26.6239 81.6187 26.8782 81.6187C27.1304 81.6187 27.3161 81.6997 27.4352 81.8618C27.5544 82.0228 27.6155 82.2717 27.6187 82.6087V82.9951ZM27.3209 82.5878C27.3209 82.3356 27.2855 82.1521 27.2147 82.0373C27.1439 81.9213 27.0317 81.8634 26.8782 81.8634C26.7258 81.8634 26.6148 81.9208 26.545 82.0356C26.4753 82.1505 26.4393 82.327 26.4372 82.5653V83.0418C26.4372 83.295 26.4736 83.4823 26.5466 83.6036C26.6207 83.7238 26.7323 83.7839 26.8815 83.7839C27.0285 83.7839 27.1374 83.727 27.2082 83.6132C27.2802 83.4995 27.3177 83.3203 27.3209 83.0756V82.5878Z" fill="#F5F7F6"/>
<path d="M27.1278 73.8334H26.8283V71.8485L26.2279 72.069V71.7986L27.0811 71.4783H27.1278V73.8334ZM29.47 72.8337C29.47 73.1825 29.4104 73.4417 29.2913 73.6112C29.1722 73.7808 28.986 73.8656 28.7327 73.8656C28.4827 73.8656 28.2975 73.7829 28.1773 73.6177C28.0571 73.4513 27.9949 73.2034 27.9906 72.8739V72.4763C27.9906 72.1318 28.0502 71.8759 28.1693 71.7085C28.2884 71.541 28.4751 71.4573 28.7295 71.4573C28.9817 71.4573 29.1674 71.5384 29.2865 71.7004C29.4056 71.8614 29.4668 72.1104 29.47 72.4473V72.8337ZM29.1722 72.4264C29.1722 72.1742 29.1368 71.9907 29.0659 71.8759C28.9951 71.76 28.883 71.702 28.7295 71.702C28.5771 71.702 28.466 71.7594 28.3963 71.8743C28.3265 71.9891 28.2906 72.1656 28.2884 72.4039V72.8804C28.2884 73.1337 28.3249 73.3209 28.3979 73.4422C28.4719 73.5624 28.5835 73.6225 28.7327 73.6225C28.8797 73.6225 28.9887 73.5656 29.0595 73.4519C29.1314 73.3381 29.169 73.1589 29.1722 72.9142V72.4264Z" fill="#F5F7F6"/>
<path d="M27.1278 62.3146H26.8283V60.3297L26.2279 60.5503V60.2798L27.0811 59.9595H27.1278V62.3146ZM28.979 62.3146H28.6796V60.3297L28.0791 60.5503V60.2798L28.9323 59.9595H28.979V62.3146Z" fill="#F5F7F6"/>
<path d="M27.1278 51.5566H26.8283V49.5718L26.2279 49.7923V49.5219L27.0811 49.2015H27.1278V51.5566ZM29.536 51.5566H28.0003V51.3425L28.8116 50.4411C28.9318 50.3048 29.0144 50.1942 29.0595 50.1094C29.1056 50.0236 29.1287 49.935 29.1287 49.8438C29.1287 49.7215 29.0917 49.6211 29.0176 49.5428C28.9436 49.4645 28.8449 49.4253 28.7214 49.4253C28.5733 49.4253 28.458 49.4677 28.3753 49.5525C28.2938 49.6362 28.253 49.7531 28.253 49.9034H27.9552C27.9552 49.6877 28.0244 49.5133 28.1628 49.3802C28.3024 49.2471 28.4886 49.1806 28.7214 49.1806C28.9393 49.1806 29.1116 49.238 29.2382 49.3528C29.3648 49.4666 29.4281 49.6185 29.4281 49.8084C29.4281 50.0391 29.2811 50.3139 28.9871 50.6326L28.3592 51.3136H29.536V51.5566Z" fill="#F5F7F6"/>
<path d="M27.1278 41.0175H26.8283V39.0326L26.2279 39.2531V38.9827L27.0811 38.6623H27.1278V41.0175ZM28.4333 39.7007H28.6571C28.7976 39.6985 28.9082 39.6615 28.9887 39.5896C29.0692 39.5177 29.1094 39.4205 29.1094 39.2982C29.1094 39.0235 28.9726 38.8861 28.6989 38.8861C28.5701 38.8861 28.4671 38.9231 28.3898 38.9972C28.3136 39.0702 28.2755 39.1673 28.2755 39.2885H27.9777C27.9777 39.1029 28.0453 38.9489 28.1806 38.8265C28.3169 38.7031 28.4896 38.6414 28.6989 38.6414C28.92 38.6414 29.0933 38.6999 29.2189 38.8169C29.3444 38.9339 29.4072 39.0964 29.4072 39.3046C29.4072 39.4066 29.3739 39.5053 29.3074 39.6008C29.2419 39.6964 29.1523 39.7677 29.0386 39.8149C29.1674 39.8557 29.2666 39.9233 29.3364 40.0178C29.4072 40.1122 29.4426 40.2276 29.4426 40.3639C29.4426 40.5742 29.3739 40.7411 29.2366 40.8645C29.0992 40.9879 28.9205 41.0497 28.7005 41.0497C28.4805 41.0497 28.3013 40.9901 28.1628 40.871C28.0255 40.7518 27.9568 40.5946 27.9568 40.3993H28.2562C28.2562 40.5227 28.2965 40.6214 28.377 40.6955C28.4574 40.7695 28.5653 40.8066 28.7005 40.8066C28.8443 40.8066 28.9543 40.769 29.0305 40.6939C29.1067 40.6188 29.1448 40.5109 29.1448 40.3703C29.1448 40.234 29.103 40.1294 29.0193 40.0564C28.9355 39.9834 28.8148 39.9459 28.6571 39.9437H28.4333V39.7007Z" fill="#F5F7F6"/>
<path d="M27.1278 29.7639H26.8283V27.7791L26.2279 27.9996V27.7291L27.0811 27.4088H27.1278V29.7639ZM29.2575 28.9767H29.5827V29.2198H29.2575V29.7639H28.9581V29.2198H27.8908V29.0443L28.9404 27.4201H29.2575V28.9767ZM28.2289 28.9767H28.9581V27.8273L28.9227 27.8917L28.2289 28.9767Z" fill="#F5F7F6"/>
<defs>
<linearGradient id="paint0_linear_1_1495" x1="98.7178" y1="81.6026" x2="98.7178" y2="19.5613" gradientUnits="userSpaceOnUse">
<stop stop-color="#27B7FF"/>
<stop offset="0.895833" stop-color="#F408AB"/>
</linearGradient>
<linearGradient id="paint1_linear_1_1495" x1="98.7178" y1="106.206" x2="98.7178" y2="41.0946" gradientUnits="userSpaceOnUse">
<stop offset="0.000116" stop-color="#0055CB"/>
<stop offset="0.3594" stop-color="#0077CE"/>
<stop offset="0.6484" stop-color="#0066FF"/>
<stop offset="0.8709" stop-color="#0066FF"/>
<stop offset="1" stop-color="#0066FF"/>
</linearGradient>
</defs>
</svg>
