<svg width="195" height="118" viewBox="0 0 195 118" fill="none" xmlns="http://www.w3.org/2000/svg">
<rect x="0.679932" y="0.369141" width="193.846" height="117.605" rx="14.7953" fill="black"/>
<rect x="0.988167" y="0.677376" width="193.229" height="116.989" rx="14.4871" stroke="white" stroke-opacity="0.5" stroke-width="0.616471"/>
<path d="M28.597 27.9456H25.6609V84.096H28.597V27.9456Z" fill="#406EB2"/>
<path d="M35.1017 27.9456H32.1656V84.096H35.1017V27.9456Z" fill="#406EB2"/>
<path d="M48.1032 27.9456H45.1671V84.096H48.1032V27.9456Z" fill="#406EB2"/>
<path d="M54.5999 27.9456H51.6638V84.096H54.5999V27.9456Z" fill="#406EB2"/>
<path d="M67.6014 27.9456H64.6653V84.096H67.6014V27.9456Z" fill="#406EB2"/>
<path d="M74.1061 27.9456H71.17V84.096H74.1061V27.9456Z" fill="#406EB2"/>
<path d="M87.1076 27.9456H84.1715V84.096H87.1076V27.9456Z" fill="#406EB2"/>
<path d="M93.6043 27.9456H90.6682V84.096H93.6043V27.9456Z" fill="#406EB2"/>
<path d="M106.606 27.9456H103.67V84.096H106.606V27.9456Z" fill="#406EB2"/>
<path d="M113.102 27.9456H110.166V84.096H113.102V27.9456Z" fill="#406EB2"/>
<path d="M126.104 27.9456H123.168V84.096H126.104V27.9456Z" fill="#406EB2"/>
<path d="M132.609 27.9456H129.673V84.096H132.609V27.9456Z" fill="#406EB2"/>
<path d="M145.61 27.9456H142.674V84.096H145.61V27.9456Z" fill="#406EB2"/>
<path d="M152.107 27.9456H149.171V84.096H152.107V27.9456Z" fill="#406EB2"/>
<path d="M165.108 27.9456H162.172V84.096H165.108V27.9456Z" fill="#406EB2"/>
<path d="M171.613 27.9456H168.677V84.096H171.613V27.9456Z" fill="#406EB2"/>
<path d="M28.597 49.1063H25.6609V84.104H28.597V49.1063Z" fill="url(#paint0_linear_1_1346)"/>
<path d="M35.1017 63.2758H32.1656V84.0959H35.1017V63.2758Z" fill="url(#paint1_linear_1_1346)"/>
<path d="M48.1032 59.4313H45.1671V84.0959H48.1032V59.4313Z" fill="url(#paint2_linear_1_1346)"/>
<path d="M54.5999 52.7075H51.6638V84.096H54.5999V52.7075Z" fill="url(#paint3_linear_1_1346)"/>
<path d="M67.6014 56.0734H64.6653V84.104H67.6014V56.0734Z" fill="url(#paint4_linear_1_1346)"/>
<path d="M74.1061 63.9165H71.17V84.096H74.1061V63.9165Z" fill="url(#paint5_linear_1_1346)"/>
<path d="M87.1076 61.8402H84.1715V84.1041H87.1076V61.8402Z" fill="url(#paint6_linear_1_1346)"/>
<path d="M93.6043 54.4675H90.6682V84.096H93.6043V54.4675Z" fill="url(#paint7_linear_1_1346)"/>
<path d="M106.606 46.7056H103.67V84.104H106.606V46.7056Z" fill="url(#paint8_linear_1_1346)"/>
<path d="M113.102 60.7128H110.166V84.0959H113.102V60.7128Z" fill="url(#paint9_linear_1_1346)"/>
<path d="M126.104 49.5848H123.168V84.0959H126.104V49.5848Z" fill="url(#paint10_linear_1_1346)"/>
<path d="M132.609 67.9232H129.673V84.096H132.609V67.9232Z" fill="url(#paint11_linear_1_1346)"/>
<path d="M145.61 59.196H142.674V84.104H145.61V59.196Z" fill="url(#paint12_linear_1_1346)"/>
<path d="M152.107 54.4675H149.171V84.096H152.107V54.4675Z" fill="url(#paint13_linear_1_1346)"/>
<path d="M165.108 48.1411H162.172V84.0959H165.108V48.1411Z" fill="url(#paint14_linear_1_1346)"/>
<path d="M171.613 57.2738H168.677V84.104H171.613V57.2738Z" fill="url(#paint15_linear_1_1346)"/>
<path d="M175.052 84.4612H20.1456V27.962H20.7377V83.8692H175.052V84.4612Z" fill="white"/>
<path d="M25.1868 88.5701V86.0692H25.8927C26.1103 86.0692 26.3026 86.1173 26.4698 86.2135C26.637 86.3097 26.7658 86.4465 26.8563 86.624C26.9479 86.8015 26.9943 87.0053 26.9954 87.2355V87.3952C26.9954 87.6311 26.9496 87.8378 26.858 88.0153C26.7676 88.1928 26.6376 88.329 26.4681 88.4241C26.2998 88.5191 26.1034 88.5678 25.879 88.5701H25.1868ZM25.5165 86.3406V88.3004H25.8635C26.1177 88.3004 26.3152 88.2214 26.4561 88.0634C26.5981 87.9053 26.6691 87.6803 26.6691 87.3883V87.2423C26.6691 86.9584 26.6021 86.7379 26.4681 86.5811C26.3353 86.423 26.1463 86.3429 25.9013 86.3406H25.5165ZM28.8384 87.9174H27.7907L27.5554 88.5701H27.2153L28.1703 86.0692H28.4588L29.4156 88.5701H29.0772L28.8384 87.9174ZM27.8903 87.646H28.7405L28.3146 86.4763L27.8903 87.646ZM31.2568 86.3406H30.453V88.5701H30.1249V86.3406H29.3228V86.0692H31.2568V86.3406ZM32.8714 87.9174H31.8237L31.5884 88.5701H31.2483L32.2033 86.0692H32.4918L33.4485 88.5701H33.1102L32.8714 87.9174ZM31.9233 87.646H32.7735L32.3475 86.4763L31.9233 87.646ZM36.1435 87.5034C36.1435 87.8756 36.0799 88.1521 35.9528 88.333C35.8257 88.514 35.6271 88.6044 35.3568 88.6044C35.09 88.6044 34.8925 88.5162 34.7642 88.3399C34.636 88.1624 34.5696 87.8979 34.565 87.5464V87.1221C34.565 86.7545 34.6285 86.4814 34.7557 86.3028C34.8828 86.1242 35.082 86.0349 35.3534 86.0349C35.6225 86.0349 35.8206 86.1213 35.9477 86.2942C36.0748 86.466 36.1401 86.7316 36.1435 87.0912V87.5034ZM35.8257 87.0689C35.8257 86.7998 35.7879 86.604 35.7124 86.4814C35.6368 86.3578 35.5171 86.2959 35.3534 86.2959C35.1908 86.2959 35.0723 86.3572 34.9978 86.4797C34.9234 86.6022 34.885 86.7906 34.8828 87.0448V87.5532C34.8828 87.8235 34.9217 88.0233 34.9996 88.1527C35.0786 88.2809 35.1977 88.3451 35.3568 88.3451C35.5137 88.3451 35.6299 88.2844 35.7055 88.163C35.7822 88.0416 35.8223 87.8504 35.8257 87.5893V87.0689ZM37.5949 88.5701H37.2754V86.4522L36.6347 86.6876V86.399L37.5451 86.0572H37.5949V88.5701Z" fill="#F5F7F6"/>
<path d="M43.9285 88.5701V86.0692H44.6344C44.852 86.0692 45.0443 86.1173 45.2115 86.2135C45.3787 86.3097 45.5075 86.4465 45.598 86.624C45.6896 86.8015 45.736 87.0053 45.7371 87.2355V87.3952C45.7371 87.6311 45.6913 87.8378 45.5997 88.0153C45.5092 88.1928 45.3793 88.329 45.2098 88.4241C45.0415 88.5191 44.8451 88.5678 44.6207 88.5701H43.9285ZM44.2582 86.3406V88.3004H44.6052C44.8594 88.3004 45.0569 88.2214 45.1978 88.0634C45.3398 87.9053 45.4108 87.6803 45.4108 87.3883V87.2423C45.4108 86.9584 45.3438 86.7379 45.2098 86.5811C45.077 86.423 44.888 86.3429 44.643 86.3406H44.2582ZM47.5801 87.9174H46.5324L46.2971 88.5701H45.957L46.912 86.0692H47.2005L48.1573 88.5701H47.8189L47.5801 87.9174ZM46.632 87.646H47.4822L47.0563 86.4763L46.632 87.646ZM49.9985 86.3406H49.1947V88.5701H48.8666V86.3406H48.0645V86.0692H49.9985V86.3406ZM51.6131 87.9174H50.5654L50.3301 88.5701H49.99L50.945 86.0692H51.2335L52.1902 88.5701H51.8519L51.6131 87.9174ZM50.665 87.646H51.5152L51.0892 86.4763L50.665 87.646ZM54.8852 87.5034C54.8852 87.8756 54.8216 88.1521 54.6945 88.333C54.5674 88.514 54.3688 88.6044 54.0985 88.6044C53.8317 88.6044 53.6342 88.5162 53.5059 88.3399C53.3777 88.1624 53.3113 87.8979 53.3067 87.5464V87.1221C53.3067 86.7545 53.3702 86.4814 53.4974 86.3028C53.6245 86.1242 53.8237 86.0349 54.0951 86.0349C54.3642 86.0349 54.5623 86.1213 54.6894 86.2942C54.8165 86.466 54.8818 86.7316 54.8852 87.0912V87.5034ZM54.5674 87.0689C54.5674 86.7998 54.5296 86.604 54.4541 86.4814C54.3785 86.3578 54.2588 86.2959 54.0951 86.2959C53.9325 86.2959 53.814 86.3572 53.7395 86.4797C53.6651 86.6022 53.6267 86.7906 53.6245 87.0448V87.5532C53.6245 87.8235 53.6634 88.0233 53.7413 88.1527C53.8203 88.2809 53.9394 88.3451 54.0985 88.3451C54.2554 88.3451 54.3716 88.2844 54.4472 88.163C54.5239 88.0416 54.564 87.8504 54.5674 87.5893V87.0689ZM56.9309 88.5701H55.2923V88.3416L56.158 87.3798C56.2862 87.2343 56.3744 87.1164 56.4225 87.0259C56.4717 86.9343 56.4963 86.8398 56.4963 86.7425C56.4963 86.612 56.4568 86.5049 56.3778 86.4213C56.2988 86.3377 56.1934 86.2959 56.0618 86.2959C55.9037 86.2959 55.7806 86.3412 55.6925 86.4316C55.6054 86.5209 55.5619 86.6458 55.5619 86.8061H55.2442C55.2442 86.5759 55.318 86.3898 55.4657 86.2478C55.6146 86.1058 55.8133 86.0349 56.0618 86.0349C56.2942 86.0349 56.478 86.0961 56.6131 86.2186C56.7482 86.34 56.8158 86.502 56.8158 86.7047C56.8158 86.9509 56.6589 87.2441 56.3452 87.5842L55.6753 88.3107H56.9309V88.5701Z" fill="#F5F7F6"/>
<path d="M62.7725 88.5701V86.0692H63.4784C63.696 86.0692 63.8883 86.1173 64.0555 86.2135C64.2227 86.3097 64.3515 86.4465 64.442 86.624C64.5336 86.8015 64.58 87.0053 64.5811 87.2355V87.3952C64.5811 87.6311 64.5353 87.8378 64.4437 88.0153C64.3532 88.1928 64.2233 88.329 64.0538 88.4241C63.8855 88.5191 63.6891 88.5678 63.4647 88.5701H62.7725ZM63.1022 86.3406V88.3004H63.4492C63.7034 88.3004 63.9009 88.2214 64.0418 88.0634C64.1838 87.9053 64.2548 87.6803 64.2548 87.3883V87.2423C64.2548 86.9584 64.1878 86.7379 64.0538 86.5811C63.921 86.423 63.732 86.3429 63.487 86.3406H63.1022ZM66.4241 87.9174H65.3764L65.1411 88.5701H64.801L65.756 86.0692H66.0445L67.0012 88.5701H66.6629L66.4241 87.9174ZM65.476 87.646H66.3262L65.9003 86.4763L65.476 87.646ZM68.8425 86.3406H68.0387V88.5701H67.7106V86.3406H66.9085V86.0692H68.8425V86.3406ZM70.4571 87.9174H69.4094L69.174 88.5701H68.834L69.789 86.0692H70.0775L71.0342 88.5701H70.6959L70.4571 87.9174ZM69.509 87.646H70.3592L69.9332 86.4763L69.509 87.646ZM73.7292 87.5034C73.7292 87.8756 73.6656 88.1521 73.5385 88.333C73.4114 88.514 73.2128 88.6044 72.9425 88.6044C72.6757 88.6044 72.4782 88.5162 72.3499 88.3399C72.2217 88.1624 72.1553 87.8979 72.1507 87.5464V87.1221C72.1507 86.7545 72.2142 86.4814 72.3413 86.3028C72.4684 86.1242 72.6677 86.0349 72.9391 86.0349C73.2082 86.0349 73.4063 86.1213 73.5334 86.2942C73.6605 86.466 73.7258 86.7316 73.7292 87.0912V87.5034ZM73.4114 87.0689C73.4114 86.7998 73.3736 86.604 73.2981 86.4814C73.2225 86.3578 73.1028 86.2959 72.9391 86.2959C72.7765 86.2959 72.658 86.3572 72.5835 86.4797C72.5091 86.6022 72.4707 86.7906 72.4684 87.0448V87.5532C72.4684 87.8235 72.5074 88.0233 72.5852 88.1527C72.6643 88.2809 72.7833 88.3451 72.9425 88.3451C73.0994 88.3451 73.2156 88.2844 73.2912 88.163C73.3679 88.0416 73.408 87.8504 73.4114 87.5893V87.0689ZM74.5983 87.1651H74.8371C74.9871 87.1628 75.105 87.1233 75.1909 87.0465C75.2768 86.9698 75.3197 86.8662 75.3197 86.7356C75.3197 86.4425 75.1737 86.2959 74.8817 86.2959C74.7443 86.2959 74.6344 86.3354 74.5519 86.4144C74.4706 86.4923 74.43 86.5959 74.43 86.7253H74.1122C74.1122 86.5272 74.1844 86.3629 74.3286 86.2324C74.4741 86.1007 74.6584 86.0349 74.8817 86.0349C75.1176 86.0349 75.3025 86.0973 75.4365 86.2221C75.5705 86.3469 75.6375 86.5204 75.6375 86.7425C75.6375 86.8513 75.602 86.9566 75.531 87.0586C75.4611 87.1605 75.3655 87.2366 75.2441 87.287C75.3815 87.3305 75.4875 87.4027 75.5619 87.5034C75.6375 87.6042 75.6753 87.7273 75.6753 87.8727C75.6753 88.0971 75.602 88.2752 75.4554 88.4069C75.3088 88.5386 75.1182 88.6044 74.8834 88.6044C74.6487 88.6044 74.4575 88.5409 74.3097 88.4138C74.1632 88.2867 74.0899 88.1189 74.0899 87.9105H74.4094C74.4094 88.0422 74.4523 88.1475 74.5382 88.2265C74.6241 88.3056 74.7391 88.3451 74.8834 88.3451C75.0369 88.3451 75.1542 88.305 75.2355 88.2248C75.3168 88.1447 75.3575 88.0296 75.3575 87.8796C75.3575 87.7342 75.3128 87.6225 75.2235 87.5446C75.1342 87.4668 75.0054 87.4267 74.8371 87.4244H74.5983V87.1651Z" fill="#F5F7F6"/>
<path d="M82.5439 88.5701V86.0692H83.2499C83.4675 86.0692 83.6598 86.1173 83.827 86.2135C83.9942 86.3097 84.123 86.4465 84.2135 86.624C84.3051 86.8015 84.3515 87.0053 84.3526 87.2355V87.3952C84.3526 87.6311 84.3068 87.8378 84.2152 88.0153C84.1247 88.1928 83.9948 88.329 83.8253 88.4241C83.657 88.5191 83.4606 88.5678 83.2361 88.5701H82.5439ZM82.8737 86.3406V88.3004H83.2207C83.4749 88.3004 83.6724 88.2214 83.8133 88.0634C83.9553 87.9053 84.0263 87.6803 84.0263 87.3883V87.2423C84.0263 86.9584 83.9593 86.7379 83.8253 86.5811C83.6925 86.423 83.5035 86.3429 83.2585 86.3406H82.8737ZM86.1956 87.9174H85.1479L84.9125 88.5701H84.5725L85.5275 86.0692H85.816L86.7727 88.5701H86.4344L86.1956 87.9174ZM85.2475 87.646H86.0977L85.6717 86.4763L85.2475 87.646ZM88.614 86.3406H87.8102V88.5701H87.4821V86.3406H86.68V86.0692H88.614V86.3406ZM90.2286 87.9174H89.1808L88.9455 88.5701H88.6054L89.5604 86.0692H89.849L90.8057 88.5701H90.4673L90.2286 87.9174ZM89.2805 87.646H90.1307L89.7047 86.4763L89.2805 87.646ZM93.5007 87.5034C93.5007 87.8756 93.4371 88.1521 93.31 88.333C93.1829 88.514 92.9842 88.6044 92.714 88.6044C92.4472 88.6044 92.2497 88.5162 92.1214 88.3399C91.9932 88.1624 91.9268 87.8979 91.9222 87.5464V87.1221C91.9222 86.7545 91.9857 86.4814 92.1128 86.3028C92.2399 86.1242 92.4392 86.0349 92.7106 86.0349C92.9797 86.0349 93.1778 86.1213 93.3049 86.2942C93.432 86.466 93.4972 86.7316 93.5007 87.0912V87.5034ZM93.1829 87.0689C93.1829 86.7998 93.1451 86.604 93.0695 86.4814C92.994 86.3578 92.8743 86.2959 92.7106 86.2959C92.548 86.2959 92.4294 86.3572 92.355 86.4797C92.2806 86.6022 92.2422 86.7906 92.2399 87.0448V87.5532C92.2399 87.8235 92.2789 88.0233 92.3567 88.1527C92.4357 88.2809 92.5548 88.3451 92.714 88.3451C92.8709 88.3451 92.9871 88.2844 93.0627 88.163C93.1394 88.0416 93.1795 87.8504 93.1829 87.5893V87.0689ZM95.2492 87.7301H95.5962V87.9895H95.2492V88.5701H94.9297V87.9895H93.7909V87.8023L94.9108 86.0692H95.2492V87.7301ZM94.1517 87.7301H94.9297V86.5038L94.8919 86.5725L94.1517 87.7301Z" fill="#F5F7F6"/>
<path d="M102.075 88.5701V86.0692H102.781C102.999 86.0692 103.191 86.1173 103.358 86.2135C103.526 86.3097 103.654 86.4465 103.745 86.624C103.836 86.8015 103.883 87.0053 103.884 87.2355V87.3952C103.884 87.6311 103.838 87.8378 103.747 88.0153C103.656 88.1928 103.526 88.329 103.357 88.4241C103.188 88.5191 102.992 88.5678 102.768 88.5701H102.075ZM102.405 86.3406V88.3004H102.752C103.006 88.3004 103.204 88.2214 103.345 88.0634C103.487 87.9053 103.558 87.6803 103.558 87.3883V87.2423C103.558 86.9584 103.491 86.7379 103.357 86.5811C103.224 86.423 103.035 86.3429 102.79 86.3406H102.405ZM105.727 87.9174H104.679L104.444 88.5701H104.104L105.059 86.0692H105.347L106.304 88.5701H105.966L105.727 87.9174ZM104.779 87.646H105.629L105.203 86.4763L104.779 87.646ZM108.145 86.3406H107.342V88.5701H107.013V86.3406H106.211V86.0692H108.145V86.3406ZM109.76 87.9174H108.712L108.477 88.5701H108.137L109.092 86.0692H109.38L110.337 88.5701H109.999L109.76 87.9174ZM108.812 87.646H109.662L109.236 86.4763L108.812 87.646ZM113.032 87.5034C113.032 87.8756 112.968 88.1521 112.841 88.333C112.714 88.514 112.516 88.6044 112.245 88.6044C111.979 88.6044 111.781 88.5162 111.653 88.3399C111.525 88.1624 111.458 87.8979 111.454 87.5464V87.1221C111.454 86.7545 111.517 86.4814 111.644 86.3028C111.771 86.1242 111.971 86.0349 112.242 86.0349C112.511 86.0349 112.709 86.1213 112.836 86.2942C112.963 86.466 113.029 86.7316 113.032 87.0912V87.5034ZM112.714 87.0689C112.714 86.7998 112.676 86.604 112.601 86.4814C112.525 86.3578 112.406 86.2959 112.242 86.2959C112.079 86.2959 111.961 86.3572 111.886 86.4797C111.812 86.6022 111.774 86.7906 111.771 87.0448V87.5532C111.771 87.8235 111.81 88.0233 111.888 88.1527C111.967 88.2809 112.086 88.3451 112.245 88.3451C112.402 88.3451 112.518 88.2844 112.594 88.163C112.671 88.0416 112.711 87.8504 112.714 87.5893V87.0689ZM113.585 87.3162L113.712 86.0692H114.994V86.3629H113.982L113.906 87.0448C114.029 86.9727 114.168 86.9366 114.324 86.9366C114.552 86.9366 114.732 87.0122 114.866 87.1633C115 87.3133 115.067 87.5166 115.067 87.7731C115.067 88.0307 114.998 88.234 114.858 88.3828C114.719 88.5306 114.525 88.6044 114.276 88.6044C114.055 88.6044 113.874 88.5432 113.735 88.4206C113.595 88.2981 113.515 88.1286 113.496 87.9122H113.796C113.816 88.0554 113.867 88.1636 113.949 88.2368C114.032 88.309 114.14 88.3451 114.276 88.3451C114.423 88.3451 114.539 88.2947 114.623 88.1939C114.707 88.0931 114.75 87.954 114.75 87.7765C114.75 87.6093 114.704 87.4754 114.612 87.3746C114.522 87.2727 114.401 87.2217 114.25 87.2217C114.111 87.2217 114.003 87.2521 113.923 87.3128L113.839 87.3815L113.585 87.3162Z" fill="#F5F7F6"/>
<path d="M121.433 88.5701V86.0692H122.139C122.357 86.0692 122.549 86.1173 122.716 86.2135C122.884 86.3097 123.012 86.4465 123.103 86.624C123.194 86.8015 123.241 87.0053 123.242 87.2355V87.3952C123.242 87.6311 123.196 87.8378 123.105 88.0153C123.014 88.1928 122.884 88.329 122.715 88.4241C122.546 88.5191 122.35 88.5678 122.126 88.5701H121.433ZM121.763 86.3406V88.3004H122.11C122.364 88.3004 122.562 88.2214 122.703 88.0634C122.845 87.9053 122.916 87.6803 122.916 87.3883V87.2423C122.916 86.9584 122.849 86.7379 122.715 86.5811C122.582 86.423 122.393 86.3429 122.148 86.3406H121.763ZM125.085 87.9174H124.037L123.802 88.5701H123.462L124.417 86.0692H124.705L125.662 88.5701H125.324L125.085 87.9174ZM124.137 87.646H124.987L124.561 86.4763L124.137 87.646ZM127.503 86.3406H126.7V88.5701H126.372V86.3406H125.569V86.0692H127.503V86.3406ZM129.118 87.9174H128.07L127.835 88.5701H127.495L128.45 86.0692H128.738L129.695 88.5701H129.357L129.118 87.9174ZM128.17 87.646H129.02L128.594 86.4763L128.17 87.646ZM132.39 87.5034C132.39 87.8756 132.327 88.1521 132.199 88.333C132.072 88.514 131.874 88.6044 131.603 88.6044C131.337 88.6044 131.139 88.5162 131.011 88.3399C130.883 88.1624 130.816 87.8979 130.812 87.5464V87.1221C130.812 86.7545 130.875 86.4814 131.002 86.3028C131.129 86.1242 131.329 86.0349 131.6 86.0349C131.869 86.0349 132.067 86.1213 132.194 86.2942C132.321 86.466 132.387 86.7316 132.39 87.0912V87.5034ZM132.072 87.0689C132.072 86.7998 132.035 86.604 131.959 86.4814C131.883 86.3578 131.764 86.2959 131.6 86.2959C131.437 86.2959 131.319 86.3572 131.244 86.4797C131.17 86.6022 131.132 86.7906 131.129 87.0448V87.5532C131.129 87.8235 131.168 88.0233 131.246 88.1527C131.325 88.2809 131.444 88.3451 131.603 88.3451C131.76 88.3451 131.877 88.2844 131.952 88.163C132.029 88.0416 132.069 87.8504 132.072 87.5893V87.0689ZM134.044 86.0675V86.3372H133.986C133.738 86.3417 133.541 86.415 133.395 86.557C133.248 86.699 133.164 86.8988 133.141 87.1565C133.272 87.0053 133.452 86.9297 133.68 86.9297C133.898 86.9297 134.071 87.0065 134.2 87.1599C134.331 87.3133 134.396 87.5114 134.396 87.7542C134.396 88.0118 134.326 88.218 134.185 88.3725C134.045 88.5271 133.857 88.6044 133.622 88.6044C133.382 88.6044 133.188 88.5128 133.039 88.3296C132.89 88.1452 132.816 87.9082 132.816 87.6185V87.4966C132.816 87.0362 132.914 86.6847 133.11 86.4419C133.307 86.198 133.599 86.0732 133.987 86.0675H134.044ZM133.627 87.1943C133.518 87.1943 133.418 87.2269 133.326 87.2922C133.235 87.3574 133.171 87.4393 133.136 87.5378V87.6546C133.136 87.8607 133.182 88.0267 133.275 88.1527C133.367 88.2786 133.483 88.3416 133.622 88.3416C133.765 88.3416 133.877 88.289 133.958 88.1836C134.041 88.0783 134.082 87.9403 134.082 87.7697C134.082 87.5979 134.04 87.4593 133.957 87.354C133.874 87.2475 133.764 87.1943 133.627 87.1943Z" fill="#F5F7F6"/>
<path d="M140.69 88.5701V86.0692H141.396C141.613 86.0692 141.806 86.1173 141.973 86.2135C142.14 86.3097 142.269 86.4465 142.359 86.624C142.451 86.8015 142.497 87.0053 142.499 87.2355V87.3952C142.499 87.6311 142.453 87.8378 142.361 88.0153C142.271 88.1928 142.141 88.329 141.971 88.4241C141.803 88.5191 141.607 88.5678 141.382 88.5701H140.69ZM141.02 86.3406V88.3004H141.367C141.621 88.3004 141.818 88.2214 141.959 88.0634C142.101 87.9053 142.172 87.6803 142.172 87.3883V87.2423C142.172 86.9584 142.105 86.7379 141.971 86.5811C141.838 86.423 141.65 86.3429 141.404 86.3406H141.02ZM144.342 87.9174H143.294L143.059 88.5701H142.718L143.673 86.0692H143.962L144.919 88.5701H144.58L144.342 87.9174ZM143.393 87.646H144.244L143.818 86.4763L143.393 87.646ZM146.76 86.3406H145.956V88.5701H145.628V86.3406H144.826V86.0692H146.76V86.3406ZM148.375 87.9174H147.327L147.092 88.5701H146.751L147.706 86.0692H147.995L148.952 88.5701H148.613L148.375 87.9174ZM147.426 87.646H148.277L147.851 86.4763L147.426 87.646ZM151.647 87.5034C151.647 87.8756 151.583 88.1521 151.456 88.333C151.329 88.514 151.13 88.6044 150.86 88.6044C150.593 88.6044 150.396 88.5162 150.267 88.3399C150.139 88.1624 150.073 87.8979 150.068 87.5464V87.1221C150.068 86.7545 150.132 86.4814 150.259 86.3028C150.386 86.1242 150.585 86.0349 150.857 86.0349C151.126 86.0349 151.324 86.1213 151.451 86.2942C151.578 86.466 151.643 86.7316 151.647 87.0912V87.5034ZM151.329 87.0689C151.329 86.7998 151.291 86.604 151.216 86.4814C151.14 86.3578 151.02 86.2959 150.857 86.2959C150.694 86.2959 150.575 86.3572 150.501 86.4797C150.427 86.6022 150.388 86.7906 150.386 87.0448V87.5532C150.386 87.8235 150.425 88.0233 150.503 88.1527C150.582 88.2809 150.701 88.3451 150.86 88.3451C151.017 88.3451 151.133 88.2844 151.209 88.163C151.285 88.0416 151.325 87.8504 151.329 87.5893V87.0689ZM153.668 86.2478L152.633 88.5701H152.299L153.332 86.3303H151.978V86.0692H153.668V86.2478Z" fill="#F5F7F6"/>
<path d="M159.637 88.5701V86.0692H160.343C160.56 86.0692 160.753 86.1173 160.92 86.2135C161.087 86.3097 161.216 86.4465 161.306 86.624C161.398 86.8015 161.444 87.0053 161.445 87.2355V87.3952C161.445 87.6311 161.4 87.8378 161.308 88.0153C161.218 88.1928 161.088 88.329 160.918 88.4241C160.75 88.5191 160.553 88.5678 160.329 88.5701H159.637ZM159.967 86.3406V88.3004H160.314C160.568 88.3004 160.765 88.2214 160.906 88.0634C161.048 87.9053 161.119 87.6803 161.119 87.3883V87.2423C161.119 86.9584 161.052 86.7379 160.918 86.5811C160.785 86.423 160.596 86.3429 160.351 86.3406H159.967ZM163.289 87.9174H162.241L162.005 88.5701H161.665L162.62 86.0692H162.909L163.866 88.5701H163.527L163.289 87.9174ZM162.34 87.646H163.191L162.765 86.4763L162.34 87.646ZM165.707 86.3406H164.903V88.5701H164.575V86.3406H163.773V86.0692H165.707V86.3406ZM167.321 87.9174H166.274L166.038 88.5701H165.698L166.653 86.0692H166.942L167.899 88.5701H167.56L167.321 87.9174ZM166.373 87.646H167.224L166.798 86.4763L166.373 87.646ZM170.594 87.5034C170.594 87.8756 170.53 88.1521 170.403 88.333C170.276 88.514 170.077 88.6044 169.807 88.6044C169.54 88.6044 169.343 88.5162 169.214 88.3399C169.086 88.1624 169.02 87.8979 169.015 87.5464V87.1221C169.015 86.7545 169.079 86.4814 169.206 86.3028C169.333 86.1242 169.532 86.0349 169.803 86.0349C170.073 86.0349 170.271 86.1213 170.398 86.2942C170.525 86.466 170.59 86.7316 170.594 87.0912V87.5034ZM170.276 87.0689C170.276 86.7998 170.238 86.604 170.162 86.4814C170.087 86.3578 169.967 86.2959 169.803 86.2959C169.641 86.2959 169.522 86.3572 169.448 86.4797C169.373 86.6022 169.335 86.7906 169.333 87.0448V87.5532C169.333 87.8235 169.372 88.0233 169.45 88.1527C169.529 88.2809 169.648 88.3451 169.807 88.3451C169.964 88.3451 170.08 88.2844 170.156 88.163C170.232 88.0416 170.272 87.8504 170.276 87.5893V87.0689ZM172.517 86.7219C172.517 86.8467 172.484 86.9578 172.418 87.0551C172.352 87.1525 172.264 87.2286 172.151 87.2836C172.282 87.3397 172.385 87.4215 172.461 87.5292C172.537 87.6368 172.576 87.7588 172.576 87.895C172.576 88.1115 172.502 88.2838 172.356 88.412C172.21 88.5403 172.019 88.6044 171.78 88.6044C171.54 88.6044 171.347 88.5403 171.202 88.412C171.057 88.2827 170.985 88.1103 170.985 87.895C170.985 87.7599 171.022 87.638 171.095 87.5292C171.17 87.4204 171.272 87.338 171.403 87.2818C171.291 87.2269 171.204 87.1507 171.14 87.0534C171.076 86.9561 171.044 86.8456 171.044 86.7219C171.044 86.5112 171.111 86.344 171.246 86.2204C171.381 86.0967 171.559 86.0349 171.78 86.0349C172 86.0349 172.178 86.0967 172.313 86.2204C172.449 86.344 172.517 86.5112 172.517 86.7219ZM172.258 87.8882C172.258 87.7485 172.213 87.6345 172.124 87.5464C172.036 87.4582 171.92 87.4141 171.777 87.4141C171.634 87.4141 171.519 87.4576 171.432 87.5446C171.346 87.6317 171.303 87.7462 171.303 87.8882C171.303 88.0302 171.345 88.1418 171.428 88.2231C171.513 88.3044 171.63 88.3451 171.78 88.3451C171.929 88.3451 172.046 88.3044 172.131 88.2231C172.216 88.1407 172.258 88.029 172.258 87.8882ZM171.78 86.2959C171.656 86.2959 171.554 86.3349 171.476 86.4127C171.4 86.4895 171.361 86.5942 171.361 86.7271C171.361 86.8542 171.399 86.9572 171.475 87.0362C171.551 87.1141 171.653 87.153 171.78 87.153C171.908 87.153 172.009 87.1141 172.084 87.0362C172.161 86.9572 172.2 86.8542 172.2 86.7271C172.2 86.6 172.16 86.4963 172.081 86.4162C172.002 86.336 171.902 86.2959 171.78 86.2959Z" fill="#F5F7F6"/>
<defs>
<linearGradient id="paint0_linear_1_1346" x1="27.131" y1="97.6363" x2="27.131" y2="37.7609" gradientUnits="userSpaceOnUse">
<stop stop-color="#27B7FF"/>
<stop offset="0.9899" stop-color="#F408AB"/>
</linearGradient>
<linearGradient id="paint1_linear_1_1346" x1="33.6315" y1="97.6364" x2="33.6315" y2="37.7609" gradientUnits="userSpaceOnUse">
<stop stop-color="#27B7FF"/>
<stop offset="0.9899" stop-color="#F408AB"/>
</linearGradient>
<linearGradient id="paint2_linear_1_1346" x1="46.6326" y1="97.6364" x2="46.6326" y2="37.761" gradientUnits="userSpaceOnUse">
<stop stop-color="#27B7FF"/>
<stop offset="0.9899" stop-color="#F408AB"/>
</linearGradient>
<linearGradient id="paint3_linear_1_1346" x1="53.1332" y1="97.6364" x2="53.1332" y2="37.7611" gradientUnits="userSpaceOnUse">
<stop stop-color="#27B7FF"/>
<stop offset="0.9899" stop-color="#F408AB"/>
</linearGradient>
<linearGradient id="paint4_linear_1_1346" x1="66.1345" y1="97.6363" x2="66.1345" y2="37.7611" gradientUnits="userSpaceOnUse">
<stop stop-color="#27B7FF"/>
<stop offset="0.9899" stop-color="#F408AB"/>
</linearGradient>
<linearGradient id="paint5_linear_1_1346" x1="72.635" y1="97.6364" x2="72.635" y2="37.761" gradientUnits="userSpaceOnUse">
<stop stop-color="#27B7FF"/>
<stop offset="0.9899" stop-color="#F408AB"/>
</linearGradient>
<linearGradient id="paint6_linear_1_1346" x1="85.6361" y1="97.6364" x2="85.6361" y2="37.7611" gradientUnits="userSpaceOnUse">
<stop stop-color="#27B7FF"/>
<stop offset="0.9899" stop-color="#F408AB"/>
</linearGradient>
<linearGradient id="paint7_linear_1_1346" x1="92.1367" y1="97.6364" x2="92.1367" y2="37.7609" gradientUnits="userSpaceOnUse">
<stop stop-color="#27B7FF"/>
<stop offset="0.9899" stop-color="#F408AB"/>
</linearGradient>
<linearGradient id="paint8_linear_1_1346" x1="105.138" y1="97.6363" x2="105.138" y2="37.7611" gradientUnits="userSpaceOnUse">
<stop stop-color="#27B7FF"/>
<stop offset="0.9899" stop-color="#F408AB"/>
</linearGradient>
<linearGradient id="paint9_linear_1_1346" x1="111.638" y1="97.6364" x2="111.638" y2="37.761" gradientUnits="userSpaceOnUse">
<stop stop-color="#27B7FF"/>
<stop offset="0.9899" stop-color="#F408AB"/>
</linearGradient>
<linearGradient id="paint10_linear_1_1346" x1="124.64" y1="97.6363" x2="124.64" y2="37.7608" gradientUnits="userSpaceOnUse">
<stop stop-color="#27B7FF"/>
<stop offset="0.9899" stop-color="#F408AB"/>
</linearGradient>
<linearGradient id="paint11_linear_1_1346" x1="131.14" y1="97.6364" x2="131.14" y2="37.761" gradientUnits="userSpaceOnUse">
<stop stop-color="#27B7FF"/>
<stop offset="0.9899" stop-color="#F408AB"/>
</linearGradient>
<linearGradient id="paint12_linear_1_1346" x1="144.141" y1="97.6363" x2="144.141" y2="37.7611" gradientUnits="userSpaceOnUse">
<stop stop-color="#27B7FF"/>
<stop offset="0.9899" stop-color="#F408AB"/>
</linearGradient>
<linearGradient id="paint13_linear_1_1346" x1="150.642" y1="97.6364" x2="150.642" y2="37.7609" gradientUnits="userSpaceOnUse">
<stop stop-color="#27B7FF"/>
<stop offset="0.9899" stop-color="#F408AB"/>
</linearGradient>
<linearGradient id="paint14_linear_1_1346" x1="163.643" y1="97.6363" x2="163.643" y2="37.7609" gradientUnits="userSpaceOnUse">
<stop stop-color="#27B7FF"/>
<stop offset="0.9899" stop-color="#F408AB"/>
</linearGradient>
<linearGradient id="paint15_linear_1_1346" x1="170.144" y1="97.6363" x2="170.144" y2="37.761" gradientUnits="userSpaceOnUse">
<stop stop-color="#27B7FF"/>
<stop offset="0.9899" stop-color="#F408AB"/>
</linearGradient>
</defs>
</svg>
