<svg width="183" height="194" viewBox="0 0 183 194" fill="none" xmlns="http://www.w3.org/2000/svg">
<rect x="0.356201" y="0.491211" width="182.491" height="193.035" rx="14.7953" fill="black"/>
<rect x="0.664437" y="0.799446" width="181.875" height="192.418" rx="14.4871" stroke="white" stroke-opacity="0.5" stroke-width="0.616471"/>
<path d="M107.799 29.6898C101.01 29.6898 94.4404 30.5982 88.179 32.269C81.6985 33.9966 75.5749 36.5758 69.8974 39.8525C64.1469 43.1779 58.8588 47.2252 54.1951 51.8888C49.5314 56.5525 45.4842 61.8488 42.1507 67.5993C38.8659 73.2687 36.2948 79.4004 34.5672 85.8808C32.8964 92.1423 31.988 98.712 31.988 105.501H40.8043C40.8043 99.5068 41.6073 93.6995 43.0915 88.1599C44.6245 82.4419 46.9036 77.0239 49.8072 72.0196C52.7514 66.9423 56.3282 62.2705 60.4485 58.1503C64.5687 54.0301 69.2405 50.4532 74.3178 47.5091C79.3302 44.6054 84.74 42.3263 90.4581 40.7934C95.9896 39.3091 101.805 38.5062 107.799 38.5062V29.6898Z" fill="url(#paint0_radial_1_1304)"/>
<path d="M90.4581 40.7933C84.74 42.3262 79.3221 44.6054 74.3178 47.509C69.2405 50.4532 64.5687 54.03 60.4485 58.1502C56.3282 62.2705 52.7514 66.9423 49.8072 72.0196C46.9036 77.032 44.6245 82.4418 43.0915 88.1599C41.6073 93.6914 40.8043 99.5068 40.8043 105.501C40.8043 111.494 41.6073 117.302 43.0915 122.841C44.6245 128.559 46.9036 133.977 49.8072 138.982C52.7514 144.059 56.3282 148.731 60.4485 152.851L66.6775 146.622C63.0926 143.037 59.9943 138.99 57.4394 134.577C54.917 130.23 52.9379 125.526 51.6078 120.554C50.3182 115.753 49.6207 110.7 49.6207 105.501C49.6207 100.293 50.3182 95.2486 51.6078 90.4471C52.9379 85.4833 54.917 80.7791 57.4394 76.4237C59.9943 72.0114 63.1007 67.9642 66.6775 64.3793C70.2624 60.7943 74.3097 57.696 78.7219 55.1412C83.0692 52.6187 87.7734 50.6397 92.7453 49.3096C97.5468 48.02 102.6 47.3224 107.799 47.3224V38.5061C101.805 38.5061 95.9977 39.3091 90.4581 40.7933Z" fill="url(#paint1_linear_1_1304)"/>
<path d="M60.1159 92.7263C61.2433 88.5087 62.9222 84.5263 65.0635 80.8279C67.229 77.0888 69.865 73.6499 72.9065 70.6084C75.948 67.5668 79.387 64.939 83.126 62.7653C86.8164 60.6241 90.8068 58.9452 95.0244 57.8178C99.1041 56.7228 103.387 56.1307 107.799 56.1307V47.3225C102.592 47.3225 97.5468 48.02 92.7453 49.3096C87.7816 50.6398 83.0773 52.6188 78.7219 55.1412C74.3097 57.6961 70.2624 60.8025 66.6775 64.3793C63.0926 67.9643 59.9943 72.0115 57.4394 76.4237C54.917 80.7711 52.9379 85.4753 51.6078 90.4472C50.3182 95.2487 49.6207 100.294 49.6207 105.501C49.6207 110.708 50.3182 115.753 51.6078 120.554C52.9379 125.518 54.917 130.222 57.4394 134.578C59.9943 138.99 63.1007 143.037 66.6775 146.622C70.2624 150.207 74.3097 153.305 78.7219 155.86C83.0692 158.382 87.7734 160.361 92.7453 161.692C97.555 162.981 102.6 163.679 107.799 163.679V154.871C103.378 154.871 99.1041 154.278 95.0244 153.183C90.8068 152.056 86.8245 150.377 83.126 148.236C79.387 146.07 75.948 143.434 72.9065 140.393C69.865 137.351 67.2371 133.912 65.0635 130.173C62.9222 126.483 61.2433 122.493 60.1159 118.275C59.021 114.195 58.4289 109.913 58.4289 105.501C58.4289 101.08 59.021 96.8059 60.1159 92.7263Z" fill="url(#paint2_radial_1_1304)"/>
<path d="M142.902 125.769C141.118 128.843 138.96 131.666 136.462 134.164C133.964 136.662 131.141 138.827 128.067 140.604C125.034 142.364 121.757 143.743 118.294 144.667C114.944 145.567 111.432 146.054 107.799 146.054C104.173 146.054 100.653 145.567 97.3035 144.667C93.8403 143.743 90.5635 142.364 87.5301 140.604C84.4562 138.819 81.6336 136.662 79.1355 134.164C76.6374 131.666 74.48 128.843 72.6956 125.769C70.9356 122.736 69.5568 119.459 68.6322 115.996C67.7319 112.646 67.2452 109.126 67.2452 105.501C67.2452 101.875 67.7319 98.355 68.6322 95.0052C69.5568 91.542 70.9356 88.2652 72.6956 85.2318C74.48 82.1579 76.6374 79.3354 79.1355 76.8373C81.6336 74.3392 84.4562 72.1817 87.5301 70.3974C90.5635 68.6373 93.8403 67.2585 97.3035 66.3339C100.653 65.4336 104.173 64.947 107.799 64.947V56.1306C103.378 56.1306 99.1041 56.7227 95.0244 57.8176C90.8068 58.945 86.8245 60.6239 83.126 62.7652C79.387 64.9307 75.948 67.5667 72.9065 70.6082C69.865 73.6497 67.2371 77.0887 65.0635 80.8277C62.9222 84.5181 61.2433 88.5086 60.1159 92.7261C59.021 96.8058 58.4289 101.088 58.4289 105.501C58.4289 109.921 59.021 114.195 60.1159 118.275C61.2433 122.492 62.9222 126.475 65.0635 130.173C67.229 133.912 69.865 137.351 72.9065 140.393C75.948 143.434 79.387 146.062 83.126 148.236C86.8164 150.377 90.8068 152.056 95.0244 153.183C99.1041 154.278 103.387 154.87 107.799 154.87C112.219 154.87 116.493 154.278 120.573 153.183C124.791 152.056 128.773 150.377 132.472 148.236C136.211 146.07 139.65 143.434 142.691 140.393C145.733 137.351 148.36 133.912 150.534 130.173L142.902 125.769Z" fill="url(#paint3_linear_1_1304)"/>
<path d="M139.536 105.501C139.536 108.339 139.155 111.089 138.449 113.717C137.719 116.426 136.64 118.989 135.27 121.365C133.875 123.774 132.18 125.98 130.233 127.935C128.278 129.889 126.072 131.585 123.663 132.98C121.287 134.358 118.724 135.437 116.015 136.159C113.395 136.865 110.646 137.246 107.799 137.246C104.96 137.246 102.211 136.865 99.5826 136.159C96.8737 135.429 94.3107 134.35 91.9342 132.98C89.5254 131.585 87.3193 129.889 85.3646 127.943C83.4099 125.996 81.7148 123.774 80.3278 121.373C78.949 118.997 77.8703 116.434 77.1484 113.725C76.4428 111.105 76.0616 108.356 76.0616 105.509C76.0616 102.67 76.4428 99.9204 77.1484 97.2925C77.8784 94.5836 78.9571 92.0206 80.3278 89.6441C81.7229 87.2353 83.418 85.0291 85.3727 83.0745C87.3274 81.1198 89.5335 79.4246 91.9424 78.0377C94.3188 76.6589 96.8818 75.5802 99.5908 74.8583C102.211 74.1527 104.96 73.7715 107.807 73.7715V64.947C104.181 64.947 100.661 65.4337 97.3116 66.334C93.8484 67.2586 90.5717 68.6374 87.5382 70.3974C84.4643 72.1818 81.6418 74.3392 79.1437 76.8373C76.6456 79.3354 74.4881 82.1579 72.7038 85.2319C70.9437 88.2653 69.5649 91.542 68.6403 95.0053C67.74 98.355 67.2534 101.867 67.2534 105.501C67.2534 109.126 67.74 112.646 68.6403 115.996C69.5649 119.459 70.9437 122.736 72.7038 125.769C74.4881 128.843 76.6456 131.666 79.1437 134.164C81.6418 136.662 84.4643 138.819 87.5382 140.604C90.5717 142.364 93.8484 143.743 97.3116 144.667C100.661 145.567 104.181 146.054 107.807 146.054C111.432 146.054 114.952 145.567 118.302 144.667C121.765 143.743 125.042 142.364 128.076 140.604C131.15 138.819 133.972 136.662 136.47 134.164C138.968 131.666 141.126 128.843 142.91 125.769C144.67 122.736 146.049 119.459 146.974 115.996C147.874 112.646 148.36 109.134 148.36 105.501H139.536Z" fill="url(#paint4_radial_1_1304)"/>
<path opacity="0.77" d="M145.505 104.925C144.776 102.216 143.697 99.6528 142.326 97.2763C140.931 94.8675 139.236 92.6614 137.289 90.7067C135.335 88.752 133.129 87.0569 130.72 85.6699C128.343 84.2911 125.78 83.2124 123.071 82.4905C120.452 81.7849 117.702 81.4037 114.855 81.4037C112.016 81.4037 109.267 81.7849 106.639 82.4905C103.93 83.2205 101.367 84.2992 98.9906 85.6699C96.5817 87.065 94.3756 88.7601 92.4209 90.7067C90.4662 92.6614 88.7711 94.8675 87.3842 97.2763C86.0053 99.6528 84.9266 102.216 84.2048 104.925C83.4991 107.545 83.1179 110.294 83.1179 113.141C83.1179 115.98 83.4991 118.729 84.2048 121.357C84.9347 124.066 86.0134 126.629 87.3842 129.005C88.7792 131.414 90.4743 133.62 92.4209 135.575C94.3675 137.53 96.5898 139.225 98.9906 140.612C101.367 141.991 103.93 143.069 106.639 143.791C109.259 144.497 112.008 144.878 114.855 144.878C117.694 144.878 120.443 144.497 123.071 143.791C125.78 143.061 128.343 141.983 130.72 140.612C133.129 139.217 135.335 137.522 137.289 135.567C139.244 133.612 140.939 131.406 142.326 128.997C143.705 126.621 144.784 124.058 145.505 121.349C146.211 118.729 146.592 115.98 146.592 113.133C146.592 110.302 146.211 107.553 145.505 104.925Z" fill="url(#paint5_radial_1_1304)"/>
<path d="M138.449 97.2844C137.719 94.5754 136.64 92.0124 135.27 89.636C133.875 87.2271 132.18 85.021 130.233 83.0663C128.278 81.1116 126.072 79.4165 123.663 78.0295C121.287 76.6507 118.724 75.572 116.015 74.8501C113.395 74.1445 110.646 73.7633 107.799 73.7633C104.96 73.7633 102.211 74.1445 99.5826 74.8501C96.8737 75.5801 94.3107 76.6588 91.9342 78.0295C89.5254 79.4246 87.3192 81.1197 85.3646 83.0663C83.4099 85.021 81.7147 87.2271 80.3197 89.636C78.9409 92.0124 77.8622 94.5754 77.1403 97.2844C76.4347 99.9041 76.0535 102.654 76.0535 105.501C76.0535 108.339 76.4347 111.089 77.1403 113.717C77.8703 116.426 78.949 118.989 80.3197 121.365C81.7147 123.774 83.4099 125.98 85.3565 127.935C87.303 129.889 89.5172 131.585 91.9261 132.971C94.3026 134.35 96.8655 135.429 99.5745 136.151C102.194 136.857 104.944 137.238 107.791 137.238C110.629 137.238 113.379 136.857 116.007 136.151C118.716 135.421 121.279 134.342 123.655 132.971C126.064 131.576 128.27 129.881 130.225 127.927C132.18 125.972 133.875 123.766 135.262 121.357C136.64 118.981 137.719 116.418 138.441 113.709C139.147 111.089 139.528 108.339 139.528 105.492C139.536 102.662 139.155 99.9122 138.449 97.2844Z" fill="url(#paint6_linear_1_1304)"/>
<path d="M131.287 99.2067C130.728 97.1303 129.9 95.1676 128.846 93.3508C127.775 91.5096 126.478 89.8145 124.985 88.314C123.485 86.8135 121.798 85.5239 119.949 84.4533C118.132 83.3989 116.169 82.5716 114.093 82.012C112.081 81.4767 109.972 81.1847 107.799 81.1847C105.625 81.1847 103.516 81.4767 101.505 82.012C99.4285 82.5716 97.4657 83.3989 95.6489 84.4533C93.8078 85.5239 92.1126 86.8216 90.6122 88.314C89.1117 89.8145 87.8221 91.5015 86.7515 93.3508C85.6971 95.1676 84.8698 97.1303 84.3101 99.2067C83.7748 101.218 83.4828 103.327 83.4828 105.501C83.4828 107.674 83.7748 109.783 84.3101 111.795C84.8698 113.871 85.6971 115.834 86.7515 117.65C87.8221 119.492 89.1198 121.187 90.6122 122.687C92.1126 124.188 93.7997 125.477 95.6489 126.548C97.4657 127.602 99.4285 128.43 101.505 128.989C103.516 129.525 105.625 129.817 107.799 129.817C109.972 129.817 112.081 129.525 114.093 128.989C116.169 128.43 118.132 127.602 119.949 126.548C121.79 125.477 123.485 124.18 124.985 122.687C126.486 121.187 127.775 119.5 128.846 117.65C129.9 115.834 130.728 113.871 131.287 111.795C131.823 109.783 132.115 107.674 132.115 105.501C132.115 103.327 131.823 101.218 131.287 99.2067Z" fill="#F5F7F6"/>
<path d="M131.231 36.2919L135.197 34.0291L131.231 31.7581V33.802H112.057V34.248H131.231V36.2919Z" fill="#F5F7F6"/>
<path d="M131.231 42.6913H112.057V43.1374H131.231V45.0758L135.197 42.8048L131.231 40.5338V42.6913Z" fill="#F5F7F6"/>
<path d="M131.231 51.5482H112.057V51.9862H131.231V54.0382L135.197 51.7672L131.231 49.4962V51.5482Z" fill="#F5F7F6"/>
<path d="M131.231 60.9079H112.057V61.354H131.231V63.1789L135.197 60.9079L131.231 58.645V60.9079Z" fill="#F5F7F6"/>
<path d="M131.231 69.9433H112.057V70.3894H131.231V72.4414L135.197 70.1704L131.231 67.8994V69.9433Z" fill="#F5F7F6"/>
<path d="M141.632 67.6541L140.023 71.2605H139.506L141.109 67.7821H139.007V67.3767H141.632V67.6541ZM142.419 69.3132L142.616 67.3767H144.606V67.8328H143.035L142.917 68.8918C143.108 68.7798 143.324 68.7237 143.566 68.7237C143.92 68.7237 144.201 68.8411 144.409 69.0758C144.617 69.3088 144.721 69.6245 144.721 70.0228C144.721 70.4229 144.612 70.7386 144.395 70.9697C144.18 71.1991 143.879 71.3138 143.491 71.3138C143.148 71.3138 142.868 71.2187 142.651 71.0284C142.434 70.8381 142.31 70.575 142.28 70.2389H142.747C142.777 70.4611 142.856 70.6292 142.984 70.743C143.112 70.855 143.281 70.9111 143.491 70.9111C143.72 70.9111 143.9 70.8328 144.03 70.6763C144.161 70.5198 144.227 70.3038 144.227 70.0281C144.227 69.7685 144.156 69.5604 144.014 69.4039C143.873 69.2457 143.686 69.1665 143.451 69.1665C143.236 69.1665 143.067 69.2137 142.944 69.3079L142.813 69.4146L142.419 69.3132ZM145.217 68.1236C145.217 67.8906 145.291 67.6985 145.438 67.5474C145.588 67.3962 145.779 67.3207 146.012 67.3207C146.248 67.3207 146.439 67.3971 146.585 67.5501C146.733 67.7012 146.807 67.8977 146.807 68.1396V68.329C146.807 68.5637 146.732 68.7557 146.583 68.9051C146.435 69.0527 146.246 69.1265 146.017 69.1265C145.786 69.1265 145.595 69.0527 145.444 68.9051C145.292 68.7557 145.217 68.5575 145.217 68.3103V68.1236ZM145.585 68.329C145.585 68.4677 145.624 68.5824 145.702 68.6731C145.781 68.762 145.885 68.8064 146.017 68.8064C146.143 68.8064 146.245 68.7629 146.321 68.6757C146.399 68.5886 146.439 68.4694 146.439 68.3183V68.1236C146.439 67.9849 146.4 67.8702 146.324 67.7795C146.247 67.6888 146.143 67.6434 146.012 67.6434C145.88 67.6434 145.776 67.6888 145.7 67.7795C145.623 67.8702 145.585 67.9884 145.585 68.1342V68.329ZM147.108 70.3082C147.108 70.0753 147.182 69.8841 147.329 69.7347C147.479 69.5836 147.67 69.508 147.903 69.508C148.136 69.508 148.327 69.5827 148.476 69.732C148.626 69.8814 148.701 70.0797 148.701 70.3269V70.5163C148.701 70.7492 148.626 70.9413 148.476 71.0924C148.329 71.2418 148.139 71.3165 147.908 71.3165C147.677 71.3165 147.486 71.2427 147.335 71.0951C147.184 70.9457 147.108 70.7475 147.108 70.5003V70.3082ZM147.476 70.5163C147.476 70.6568 147.515 70.7724 147.594 70.863C147.672 70.952 147.777 70.9964 147.908 70.9964C148.036 70.9964 148.139 70.9529 148.215 70.8657C148.292 70.7768 148.33 70.6568 148.33 70.5056V70.3082C148.33 70.1677 148.291 70.053 148.212 69.9641C148.136 69.8752 148.033 69.8307 147.903 69.8307C147.777 69.8307 147.674 69.8752 147.594 69.9641C147.515 70.0512 147.476 70.1695 147.476 70.3189V70.5163ZM146.129 70.9671L145.849 70.791L147.746 67.7554L148.026 67.9315L146.129 70.9671Z" fill="#F5F7F6"/>
<path d="M141.061 58.6485V59.0673H140.97C140.586 59.0744 140.28 59.1883 140.053 59.4088C139.825 59.6293 139.693 59.9396 139.658 60.3397C139.862 60.105 140.142 59.9876 140.495 59.9876C140.833 59.9876 141.103 60.1068 141.304 60.345C141.506 60.5833 141.608 60.891 141.608 61.268C141.608 61.6681 141.498 61.9882 141.28 62.2283C141.063 62.4683 140.771 62.5884 140.405 62.5884C140.033 62.5884 139.732 62.4461 139.5 62.1616C139.269 61.8753 139.154 61.5072 139.154 61.0573V60.8679C139.154 60.153 139.306 59.607 139.61 59.23C139.916 58.8513 140.37 58.6574 140.973 58.6485H141.061ZM140.413 60.3984C140.244 60.3984 140.088 60.4491 139.946 60.5504C139.804 60.6518 139.705 60.779 139.65 60.9319V61.1133C139.65 61.4334 139.722 61.6912 139.866 61.8868C140.01 62.0825 140.19 62.1803 140.405 62.1803C140.627 62.1803 140.801 62.0985 140.928 61.9349C141.056 61.7713 141.12 61.557 141.12 61.292C141.12 61.0252 141.055 60.8101 140.925 60.6465C140.797 60.4811 140.626 60.3984 140.413 60.3984ZM144.627 60.8785C144.627 61.4565 144.529 61.886 144.331 62.1669C144.134 62.4479 143.825 62.5884 143.406 62.5884C142.991 62.5884 142.685 62.4515 142.485 62.1776C142.286 61.902 142.183 61.4912 142.176 60.9452V60.2864C142.176 59.7155 142.275 59.2914 142.472 59.014C142.669 58.7366 142.979 58.5979 143.4 58.5979C143.818 58.5979 144.126 58.7321 144.323 59.0006C144.521 59.2674 144.622 59.68 144.627 60.2383V60.8785ZM144.134 60.2037C144.134 59.7858 144.075 59.4817 143.958 59.2914C143.84 59.0993 143.655 59.0033 143.4 59.0033C143.148 59.0033 142.964 59.0985 142.848 59.2887C142.733 59.479 142.673 59.7715 142.669 60.1663V60.9559C142.669 61.3756 142.73 61.6859 142.851 61.8868C142.973 62.086 143.158 62.1856 143.406 62.1856C143.649 62.1856 143.83 62.0913 143.947 61.9028C144.066 61.7143 144.129 61.4174 144.134 61.0119V60.2037ZM145.217 59.3981C145.217 59.1651 145.291 58.9731 145.438 58.8219C145.588 58.6708 145.779 58.5952 146.012 58.5952C146.248 58.5952 146.439 58.6717 146.585 58.8246C146.733 58.9757 146.807 59.1722 146.807 59.4141V59.6035C146.807 59.8382 146.732 60.0303 146.583 60.1797C146.435 60.3273 146.246 60.4011 146.017 60.4011C145.786 60.4011 145.595 60.3273 145.444 60.1797C145.292 60.0303 145.217 59.832 145.217 59.5848V59.3981ZM145.585 59.6035C145.585 59.7422 145.624 59.8569 145.702 59.9476C145.781 60.0365 145.885 60.081 146.017 60.081C146.143 60.081 146.245 60.0374 146.321 59.9503C146.399 59.8631 146.439 59.744 146.439 59.5928V59.3981C146.439 59.2594 146.4 59.1447 146.324 59.054C146.247 58.9633 146.143 58.918 146.012 58.918C145.88 58.918 145.776 58.9633 145.7 59.054C145.623 59.1447 145.585 59.2629 145.585 59.4088V59.6035ZM147.108 61.5827C147.108 61.3498 147.182 61.1586 147.329 61.0092C147.479 60.8581 147.67 60.7825 147.903 60.7825C148.136 60.7825 148.327 60.8572 148.476 61.0066C148.626 61.156 148.701 61.3542 148.701 61.6014V61.7908C148.701 62.0238 148.626 62.2158 148.476 62.367C148.329 62.5164 148.139 62.5911 147.908 62.5911C147.677 62.5911 147.486 62.5173 147.335 62.3697C147.184 62.2203 147.108 62.022 147.108 61.7748V61.5827ZM147.476 61.7908C147.476 61.9313 147.515 62.0469 147.594 62.1376C147.672 62.2265 147.777 62.271 147.908 62.271C148.036 62.271 148.139 62.2274 148.215 62.1402C148.292 62.0513 148.33 61.9313 148.33 61.7801V61.5827C148.33 61.4423 148.291 61.3276 148.212 61.2386C148.136 61.1497 148.033 61.1053 147.903 61.1053C147.777 61.1053 147.674 61.1497 147.594 61.2386C147.515 61.3258 147.476 61.444 147.476 61.5934V61.7908ZM146.129 62.2416L145.849 62.0656L147.746 59.03L148.026 59.206L146.129 62.2416Z" fill="#F5F7F6"/>
<path d="M139.351 51.7108L139.548 49.7743H141.538V50.2304H139.967L139.85 51.2894C140.04 51.1773 140.256 51.1213 140.498 51.1213C140.852 51.1213 141.133 51.2387 141.341 51.4734C141.549 51.7064 141.653 52.022 141.653 52.4204C141.653 52.8205 141.545 53.1361 141.328 53.3673C141.112 53.5967 140.811 53.7114 140.423 53.7114C140.08 53.7114 139.8 53.6163 139.583 53.426C139.366 53.2357 139.243 52.9725 139.212 52.6364H139.679C139.709 52.8587 139.789 53.0268 139.917 53.1406C140.045 53.2526 140.214 53.3086 140.423 53.3086C140.653 53.3086 140.832 53.2304 140.962 53.0739C141.094 52.9174 141.16 52.7014 141.16 52.4257C141.16 52.1661 141.088 51.958 140.946 51.8015C140.806 51.6433 140.618 51.5641 140.383 51.5641C140.168 51.5641 139.999 51.6112 139.877 51.7055L139.746 51.8122L139.351 51.7108ZM144.627 52.0016C144.627 52.5795 144.529 53.009 144.331 53.29C144.134 53.5709 143.825 53.7114 143.406 53.7114C142.991 53.7114 142.685 53.5745 142.485 53.3006C142.286 53.025 142.183 52.6142 142.176 52.0683V51.4094C142.176 50.8386 142.275 50.4144 142.472 50.137C142.669 49.8596 142.979 49.7209 143.4 49.7209C143.818 49.7209 144.126 49.8552 144.323 50.1237C144.521 50.3904 144.622 50.803 144.627 51.3614V52.0016ZM144.134 51.3267C144.134 50.9088 144.075 50.6047 143.958 50.4144C143.84 50.2224 143.655 50.1264 143.4 50.1264C143.148 50.1264 142.964 50.2215 142.848 50.4118C142.733 50.6021 142.673 50.8946 142.669 51.2894V52.0789C142.669 52.4986 142.73 52.8089 142.851 53.0099C142.973 53.2091 143.158 53.3086 143.406 53.3086C143.649 53.3086 143.83 53.2144 143.947 53.0259C144.066 52.8374 144.129 52.5404 144.134 52.135V51.3267ZM145.217 50.5211C145.217 50.2882 145.291 50.0961 145.438 49.945C145.588 49.7938 145.779 49.7182 146.012 49.7182C146.248 49.7182 146.439 49.7947 146.585 49.9476C146.733 50.0988 146.807 50.2953 146.807 50.5371V50.7265C146.807 50.9613 146.732 51.1533 146.583 51.3027C146.435 51.4503 146.246 51.5241 146.017 51.5241C145.786 51.5241 145.595 51.4503 145.444 51.3027C145.292 51.1533 145.217 50.955 145.217 50.7079V50.5211ZM145.585 50.7265C145.585 50.8652 145.624 50.9799 145.702 51.0706C145.781 51.1596 145.885 51.204 146.017 51.204C146.143 51.204 146.245 51.1604 146.321 51.0733C146.399 50.9862 146.439 50.867 146.439 50.7159V50.5211C146.439 50.3824 146.4 50.2677 146.324 50.177C146.247 50.0863 146.143 50.041 146.012 50.041C145.88 50.041 145.776 50.0863 145.7 50.177C145.623 50.2677 145.585 50.386 145.585 50.5318V50.7265ZM147.108 52.7058C147.108 52.4728 147.182 52.2817 147.329 52.1323C147.479 51.9811 147.67 51.9056 147.903 51.9056C148.136 51.9056 148.327 51.9802 148.476 52.1296C148.626 52.279 148.701 52.4773 148.701 52.7245V52.9139C148.701 53.1468 148.626 53.3389 148.476 53.49C148.329 53.6394 148.139 53.7141 147.908 53.7141C147.677 53.7141 147.486 53.6403 147.335 53.4927C147.184 53.3433 147.108 53.145 147.108 52.8979V52.7058ZM147.476 52.9139C147.476 53.0543 147.515 53.1699 147.594 53.2606C147.672 53.3495 147.777 53.394 147.908 53.394C148.036 53.394 148.139 53.3504 148.215 53.2633C148.292 53.1744 148.33 53.0543 148.33 52.9032V52.7058C148.33 52.5653 148.291 52.4506 148.212 52.3617C148.136 52.2728 148.033 52.2283 147.903 52.2283C147.777 52.2283 147.674 52.2728 147.594 52.3617C147.515 52.4488 147.476 52.5671 147.476 52.7165V52.9139ZM146.129 53.3647L145.849 53.1886L147.746 50.153L148.026 50.3291L146.129 53.3647Z" fill="#F5F7F6"/>
<path d="M139.842 42.0675H140.213C140.446 42.064 140.629 42.0026 140.762 41.8835C140.896 41.7643 140.962 41.6034 140.962 41.4007C140.962 40.9454 140.735 40.7178 140.282 40.7178C140.069 40.7178 139.898 40.7791 139.77 40.9018C139.644 41.0228 139.58 41.1837 139.58 41.3847H139.087C139.087 41.077 139.199 40.8218 139.423 40.6191C139.649 40.4146 139.935 40.3123 140.282 40.3123C140.648 40.3123 140.936 40.4093 141.144 40.6031C141.352 40.7969 141.456 41.0663 141.456 41.4113C141.456 41.5803 141.401 41.7439 141.29 41.9021C141.182 42.0604 141.033 42.1787 140.845 42.2569C141.058 42.3245 141.223 42.4365 141.338 42.593C141.456 42.7495 141.514 42.9407 141.514 43.1665C141.514 43.5151 141.401 43.7916 141.173 43.9961C140.945 44.2006 140.649 44.3029 140.285 44.3029C139.92 44.3029 139.623 44.2042 139.394 44.0068C139.166 43.8094 139.052 43.5489 139.052 43.2252H139.548C139.548 43.4297 139.615 43.5933 139.749 43.716C139.882 43.8387 140.061 43.9001 140.285 43.9001C140.523 43.9001 140.705 43.8378 140.832 43.7134C140.958 43.5889 141.021 43.4101 141.021 43.1772C141.021 42.9513 140.952 42.778 140.813 42.657C140.674 42.5361 140.474 42.4739 140.213 42.4703H139.842V42.0675ZM144.627 42.593C144.627 43.171 144.529 43.6004 144.331 43.8814C144.134 44.1624 143.825 44.3029 143.406 44.3029C142.991 44.3029 142.685 44.1659 142.485 43.8921C142.286 43.6164 142.183 43.2056 142.176 42.6597V42.0008C142.176 41.43 142.275 41.0059 142.472 40.7285C142.669 40.451 142.979 40.3123 143.4 40.3123C143.818 40.3123 144.126 40.4466 144.323 40.7151C144.521 40.9819 144.622 41.3944 144.627 41.9528V42.593ZM144.134 41.9181C144.134 41.5002 144.075 41.1962 143.958 41.0059C143.84 40.8138 143.655 40.7178 143.4 40.7178C143.148 40.7178 142.964 40.8129 142.848 41.0032C142.733 41.1935 142.673 41.486 142.669 41.8808V42.6704C142.669 43.0901 142.73 43.4004 142.851 43.6013C142.973 43.8005 143.158 43.9001 143.406 43.9001C143.649 43.9001 143.83 43.8058 143.947 43.6173C144.066 43.4288 144.129 43.1318 144.134 42.7264V41.9181ZM145.217 41.1126C145.217 40.8796 145.291 40.6876 145.438 40.5364C145.588 40.3852 145.779 40.3097 146.012 40.3097C146.248 40.3097 146.439 40.3861 146.585 40.5391C146.733 40.6902 146.807 40.8867 146.807 41.1286V41.318C146.807 41.5527 146.732 41.7448 146.583 41.8941C146.435 42.0417 146.246 42.1155 146.017 42.1155C145.786 42.1155 145.595 42.0417 145.444 41.8941C145.292 41.7448 145.217 41.5465 145.217 41.2993V41.1126ZM145.585 41.318C145.585 41.4567 145.624 41.5714 145.702 41.6621C145.781 41.751 145.885 41.7954 146.017 41.7954C146.143 41.7954 146.245 41.7519 146.321 41.6647C146.399 41.5776 146.439 41.4585 146.439 41.3073V41.1126C146.439 40.9739 146.4 40.8592 146.324 40.7685C146.247 40.6778 146.143 40.6324 146.012 40.6324C145.88 40.6324 145.776 40.6778 145.7 40.7685C145.623 40.8592 145.585 40.9774 145.585 41.1232V41.318ZM147.108 43.2972C147.108 43.0643 147.182 42.8731 147.329 42.7237C147.479 42.5726 147.67 42.497 147.903 42.497C148.136 42.497 148.327 42.5717 148.476 42.7211C148.626 42.8704 148.701 43.0687 148.701 43.3159V43.5053C148.701 43.7382 148.626 43.9303 148.476 44.0815C148.329 44.2308 148.139 44.3055 147.908 44.3055C147.677 44.3055 147.486 44.2317 147.335 44.0841C147.184 43.9348 147.108 43.7365 147.108 43.4893V43.2972ZM147.476 43.5053C147.476 43.6458 147.515 43.7614 147.594 43.8521C147.672 43.941 147.777 43.9854 147.908 43.9854C148.036 43.9854 148.139 43.9419 148.215 43.8547C148.292 43.7658 148.33 43.6458 148.33 43.4946V43.2972C148.33 43.1567 148.291 43.042 148.212 42.9531C148.136 42.8642 148.033 42.8198 147.903 42.8198C147.777 42.8198 147.674 42.8642 147.594 42.9531C147.515 43.0403 147.476 43.1585 147.476 43.3079V43.5053ZM146.129 43.9561L145.849 43.78L147.746 40.7445L148.026 40.9205L146.129 43.9561Z" fill="#F5F7F6"/>
<path d="M140.746 34.6898H140.25V31.4008L139.255 31.7663V31.3181L140.669 30.7873H140.746V34.6898ZM142.419 32.7426L142.616 30.806H144.606V31.2621H143.035L142.917 32.3211C143.108 32.2091 143.324 32.1531 143.566 32.1531C143.92 32.1531 144.201 32.2704 144.409 32.5052C144.617 32.7381 144.721 33.0538 144.721 33.4521C144.721 33.8522 144.612 34.1679 144.395 34.3991C144.18 34.6285 143.879 34.7432 143.491 34.7432C143.148 34.7432 142.868 34.648 142.651 34.4577C142.434 34.2675 142.31 34.0043 142.28 33.6682H142.747C142.777 33.8905 142.856 34.0585 142.984 34.1723C143.112 34.2844 143.281 34.3404 143.491 34.3404C143.72 34.3404 143.9 34.2621 144.03 34.1056C144.161 33.9492 144.227 33.7331 144.227 33.4575C144.227 33.1978 144.156 32.9898 144.014 32.8333C143.873 32.675 143.686 32.5959 143.451 32.5959C143.236 32.5959 143.067 32.643 142.944 32.7372L142.813 32.8439L142.419 32.7426ZM145.217 31.5529C145.217 31.3199 145.291 31.1279 145.438 30.9767C145.588 30.8256 145.779 30.75 146.012 30.75C146.248 30.75 146.439 30.8264 146.585 30.9794C146.733 31.1305 146.807 31.327 146.807 31.5689V31.7583C146.807 31.993 146.732 32.1851 146.583 32.3344C146.435 32.482 146.246 32.5558 146.017 32.5558C145.786 32.5558 145.595 32.482 145.444 32.3344C145.292 32.1851 145.217 31.9868 145.217 31.7396V31.5529ZM145.585 31.7583C145.585 31.897 145.624 32.0117 145.702 32.1024C145.781 32.1913 145.885 32.2358 146.017 32.2358C146.143 32.2358 146.245 32.1922 146.321 32.105C146.399 32.0179 146.439 31.8988 146.439 31.7476V31.5529C146.439 31.4142 146.4 31.2995 146.324 31.2088C146.247 31.1181 146.143 31.0727 146.012 31.0727C145.88 31.0727 145.776 31.1181 145.7 31.2088C145.623 31.2995 145.585 31.4177 145.585 31.5636V31.7583ZM147.108 33.7375C147.108 33.5046 147.182 33.3134 147.329 33.164C147.479 33.0129 147.67 32.9373 147.903 32.9373C148.136 32.9373 148.327 33.012 148.476 33.1614C148.626 33.3107 148.701 33.509 148.701 33.7562V33.9456C148.701 34.1786 148.626 34.3706 148.476 34.5218C148.329 34.6711 148.139 34.7458 147.908 34.7458C147.677 34.7458 147.486 34.672 147.335 34.5244C147.184 34.3751 147.108 34.1768 147.108 33.9296V33.7375ZM147.476 33.9456C147.476 34.0861 147.515 34.2017 147.594 34.2924C147.672 34.3813 147.777 34.4257 147.908 34.4257C148.036 34.4257 148.139 34.3822 148.215 34.295C148.292 34.2061 148.33 34.0861 148.33 33.9349V33.7375C148.33 33.597 148.291 33.4823 148.212 33.3934C148.136 33.3045 148.033 33.2601 147.903 33.2601C147.777 33.2601 147.674 33.3045 147.594 33.3934C147.515 33.4806 147.476 33.5988 147.476 33.7482V33.9456ZM146.129 34.3964L145.849 34.2203L147.746 31.1848L148.026 31.3608L146.129 34.3964Z" fill="#F5F7F6"/>
<path d="M111.377 100.249C109.326 98.6194 106.419 98.5923 104.449 100.195C103.037 101.336 102.33 103.048 102.33 105.262C102.33 106.729 103.648 108.834 103.811 109.106C103.824 109.119 104.911 110.586 105.169 112.339L105.237 112.773H110.711L110.779 112.339C111.037 110.586 112.124 109.119 112.151 109.079C112.3 108.848 113.618 106.742 113.618 105.275C113.604 103.102 112.857 101.418 111.377 100.249ZM107.859 103.129C106.935 103.156 106.093 103.727 105.74 104.583C105.658 104.773 105.468 104.895 105.264 104.895C105.196 104.895 105.128 104.881 105.06 104.854C104.802 104.746 104.68 104.447 104.789 104.189C105.305 102.966 106.5 102.151 107.818 102.11C108.09 102.097 108.334 102.328 108.334 102.613C108.361 102.885 108.144 103.116 107.859 103.129Z" fill="#193566"/>
<path d="M110.67 115.069H105.02C104.734 115.069 104.503 114.838 104.503 114.553C104.503 114.267 104.734 114.036 105.02 114.036H110.67C110.956 114.036 111.186 114.267 111.186 114.553C111.186 114.838 110.956 115.069 110.67 115.069Z" fill="#193566"/>
<path d="M109.393 114.797H106.174V116.142H109.393V114.797Z" fill="#193566"/>
<path d="M107.736 97.8586C107.451 97.8586 107.22 97.6277 107.22 97.3425V95.9026C107.22 95.6174 107.451 95.3865 107.736 95.3865C108.022 95.3865 108.252 95.6174 108.252 95.9026V97.3425C108.252 97.6413 108.022 97.8586 107.736 97.8586Z" fill="#193566"/>
<path d="M103.648 99.0134C103.471 99.0134 103.295 98.9183 103.2 98.7553L102.48 97.5056C102.344 97.2611 102.425 96.9487 102.67 96.8129C102.914 96.677 103.227 96.7585 103.363 97.003L104.082 98.2527C104.218 98.4972 104.137 98.8096 103.892 98.9454C103.824 98.9998 103.743 99.0134 103.648 99.0134Z" fill="#193566"/>
<path d="M100.687 102.07C100.605 102.07 100.51 102.042 100.429 102.002L99.1789 101.282C98.9344 101.146 98.8529 100.833 98.9887 100.589C99.1245 100.344 99.437 100.263 99.6815 100.399L100.931 101.119C101.176 101.255 101.257 101.567 101.121 101.811C101.04 101.974 100.863 102.07 100.687 102.07Z" fill="#193566"/>
<path d="M99.6407 106.185H98.2009C97.9156 106.185 97.6847 105.954 97.6847 105.669C97.6847 105.384 97.9156 105.153 98.2009 105.153H99.6407C99.9259 105.153 100.157 105.384 100.157 105.669C100.157 105.954 99.9259 106.185 99.6407 106.185Z" fill="#193566"/>
<path d="M99.5592 110.994C99.3826 110.994 99.206 110.899 99.1109 110.736C98.9751 110.491 99.0566 110.179 99.3011 110.043L100.551 109.323C100.795 109.187 101.108 109.269 101.243 109.513C101.379 109.758 101.298 110.07 101.053 110.206L99.8037 110.926C99.7357 110.967 99.6407 110.994 99.5592 110.994Z" fill="#193566"/>
<path d="M116.267 110.804C116.185 110.804 116.09 110.776 116.009 110.736L114.759 110.016C114.514 109.88 114.433 109.567 114.569 109.323C114.705 109.078 115.017 108.997 115.261 109.133L116.511 109.853C116.756 109.989 116.837 110.301 116.701 110.545C116.606 110.708 116.443 110.804 116.267 110.804Z" fill="#193566"/>
<path d="M117.503 105.954H116.063C115.778 105.954 115.547 105.723 115.547 105.438C115.547 105.153 115.778 104.922 116.063 104.922H117.503C117.788 104.922 118.019 105.153 118.019 105.438C118.019 105.723 117.788 105.954 117.503 105.954Z" fill="#193566"/>
<path d="M114.908 101.866C114.732 101.866 114.555 101.771 114.46 101.608C114.324 101.363 114.406 101.051 114.65 100.915L115.9 100.195C116.144 100.059 116.457 100.141 116.593 100.385C116.729 100.63 116.647 100.942 116.403 101.078L115.153 101.798C115.085 101.852 114.99 101.866 114.908 101.866Z" fill="#193566"/>
<path d="M111.866 98.9046C111.784 98.9046 111.689 98.8774 111.608 98.8367C111.363 98.7009 111.282 98.3884 111.417 98.1439L112.137 96.8943C112.273 96.6498 112.586 96.5683 112.83 96.7041C113.075 96.8399 113.156 97.1523 113.02 97.3968L112.3 98.6465C112.205 98.8095 112.029 98.9046 111.866 98.9046Z" fill="#193566"/>
<defs>
<radialGradient id="paint0_radial_1_1304" cx="0" cy="0" r="1" gradientUnits="userSpaceOnUse" gradientTransform="translate(69.8937 91.3238) rotate(-90) scale(65.2316)">
<stop stop-color="#0066FF"/>
<stop offset="0.276042" stop-color="#0066FF"/>
<stop offset="0.6406" stop-color="#0097CE"/>
<stop offset="1" stop-color="#0058CB"/>
</radialGradient>
<linearGradient id="paint1_linear_1_1304" x1="74.3011" y1="173.745" x2="74.3011" y2="42.8383" gradientUnits="userSpaceOnUse">
<stop stop-color="#27B7FF"/>
<stop offset="0.9899" stop-color="#F408AB"/>
</linearGradient>
<radialGradient id="paint2_radial_1_1304" cx="0" cy="0" r="1" gradientUnits="userSpaceOnUse" gradientTransform="translate(78.7087 91.3236) rotate(-90) scale(65.2318)">
<stop stop-color="#0066FF"/>
<stop offset="0.307292" stop-color="#0066FF"/>
<stop offset="0.651042" stop-color="#0097CE"/>
<stop offset="0.9819" stop-color="#0058CB"/>
</radialGradient>
<linearGradient id="paint3_linear_1_1304" x1="104.482" y1="173.745" x2="104.482" y2="42.8377" gradientUnits="userSpaceOnUse">
<stop stop-color="#27B7FF"/>
<stop offset="0.9899" stop-color="#F408AB"/>
</linearGradient>
<radialGradient id="paint4_radial_1_1304" cx="0" cy="0" r="1" gradientUnits="userSpaceOnUse" gradientTransform="translate(107.8 91.3238) rotate(-90) scale(65.2315)">
<stop stop-color="#0066FF"/>
<stop offset="0.338542" stop-color="#0066FF"/>
<stop offset="0.692708" stop-color="#0097CE"/>
<stop offset="0.9819" stop-color="#0058CB"/>
</radialGradient>
<radialGradient id="paint5_radial_1_1304" cx="0" cy="0" r="1" gradientUnits="userSpaceOnUse" gradientTransform="translate(114.852 113.141) scale(31.7366 31.7366)">
<stop offset="0.000116"/>
<stop offset="0.0894" stop-color="#1D1D1D"/>
<stop offset="0.3464" stop-color="#6C6C6C"/>
<stop offset="0.5751" stop-color="#ABABAB"/>
<stop offset="0.7669" stop-color="#D9D9D9"/>
<stop offset="0.9145" stop-color="#F5F5F5"/>
<stop offset="1" stop-color="white"/>
</radialGradient>
<linearGradient id="paint6_linear_1_1304" x1="136.008" y1="133.709" x2="83.8751" y2="81.5768" gradientUnits="userSpaceOnUse">
<stop stop-color="#071A35"/>
<stop offset="1" stop-color="#193566"/>
</linearGradient>
</defs>
</svg>
