<svg width="195" height="119" viewBox="0 0 195 119" fill="none" xmlns="http://www.w3.org/2000/svg">
<rect x="0.67627" y="0.796875" width="193.846" height="117.605" rx="14.7953" fill="black"/>
<rect x="0.984505" y="1.10511" width="193.229" height="116.989" rx="14.4871" stroke="white" stroke-opacity="0.5" stroke-width="0.616471"/>
<path d="M171.107 50.9129V93.7212H24.5542V40.3527C31.2131 40.3527 31.2131 50.9047 37.872 50.9047C44.539 50.9047 44.539 29.0464 51.1979 29.0464C57.8568 29.0464 57.8567 65.6095 64.5238 65.6095C71.1826 65.6095 71.1826 40.3527 77.8415 40.3527C84.5004 40.3527 84.5005 57.3122 91.1593 57.3122C97.8263 57.3122 97.8263 50.1504 104.485 50.1504C111.144 50.1504 111.144 60.3294 117.811 60.3294C124.47 60.3294 124.47 49.9639 131.137 49.9639C137.796 49.9639 137.796 73.8986 144.455 73.8986C151.122 73.8986 151.122 30.3603 157.781 30.3603C164.44 30.3684 164.44 50.9129 171.107 50.9129Z" fill="url(#paint0_linear_1_1479)"/>
<path d="M144.455 74.2799C140.837 74.2799 139.183 68.3347 137.431 62.0408C135.833 56.2903 134.179 50.3533 131.137 50.3533C128.006 50.3533 126.449 52.7865 124.786 55.3657C123.091 58.0017 121.347 60.7188 117.811 60.7188C114.275 60.7188 112.523 58.0422 110.836 55.4549C109.181 52.9244 107.616 50.5398 104.493 50.5398C101.33 50.5398 99.7649 52.2187 98.1103 54.0031C96.4152 55.8199 94.6632 57.7016 91.1675 57.7016C87.5825 57.7016 85.8388 53.265 84.1599 48.9826C82.5702 44.9272 80.9237 40.7421 77.8497 40.7421C74.8082 40.7421 73.1536 47.0198 71.5558 53.0866C69.8039 59.7212 68.1493 65.9907 64.5319 65.9907C60.8821 65.9907 59.2357 56.9554 57.5 47.3929C55.967 38.974 54.2232 29.4276 51.2142 29.4276C48.1645 29.4276 46.5099 34.8456 44.9121 40.0932C43.1602 45.8518 41.4975 51.2941 37.8883 51.2941C34.352 51.2941 32.6001 48.5203 30.913 45.8437C29.2584 43.224 27.6931 40.7421 24.5704 40.7421C24.3596 40.7421 24.1974 40.5718 24.1974 40.369C24.1974 40.1581 24.3677 39.9959 24.5704 39.9959C28.1067 39.9959 29.8587 42.7698 31.5457 45.4463C33.2003 48.0661 34.7656 50.5479 37.8883 50.5479C40.9379 50.5479 42.5924 45.1219 44.1903 39.8824C45.9422 34.1238 47.6049 28.6896 51.2142 28.6896C54.8559 28.6896 56.5023 37.7168 58.2461 47.2793C59.7791 55.7063 61.5229 65.2527 64.5401 65.2527C67.5816 65.2527 69.2362 58.975 70.834 52.9082C72.5859 46.2736 74.2404 40.004 77.8578 40.004C81.4428 40.004 83.1866 44.4406 84.8655 48.723C86.4552 52.7784 88.1016 56.9635 91.1756 56.9635C94.3469 56.9635 95.9041 55.2846 97.5668 53.5002C99.262 51.6834 101.006 49.8018 104.501 49.8018C108.038 49.8018 109.782 52.4783 111.477 55.0575C113.131 57.588 114.697 59.9726 117.827 59.9726C120.95 59.9726 122.515 57.5394 124.17 54.9683C125.865 52.3323 127.617 49.6152 131.153 49.6152C134.771 49.6152 136.425 55.5604 138.177 61.8543C139.775 67.6048 141.43 73.5499 144.471 73.5499C147.48 73.5499 149.224 62.1544 150.765 52.1052C152.809 38.7631 154.399 30.0197 157.805 30.0197C161.406 30.0197 163.142 35.3728 164.821 40.5474C166.419 45.4706 168.065 50.556 171.123 50.556C171.334 50.556 171.496 50.7264 171.496 50.9291C171.496 51.14 171.326 51.3022 171.123 51.3022C167.514 51.3022 165.778 45.9492 164.099 40.7664C162.501 35.8432 160.855 30.7578 157.797 30.7578C154.788 30.7578 153.044 42.1533 151.503 52.2025C149.451 65.5365 147.853 74.2799 144.455 74.2799Z" fill="white"/>
<path d="M54.1097 28.9572C54.1097 30.6199 52.7633 31.9744 51.0925 31.9744C49.4298 31.9744 48.0753 30.6281 48.0753 28.9572C48.0753 27.2946 49.4217 25.9401 51.0925 25.9401C52.7552 25.9401 54.1097 27.2946 54.1097 28.9572Z" fill="#018DCE"/>
<path d="M40.1592 50.5399C40.1592 52.2026 38.8128 53.5571 37.142 53.5571C35.4793 53.5571 34.1249 52.2107 34.1249 50.5399C34.1249 48.8772 35.4712 47.5227 37.142 47.5227C38.8128 47.5227 40.1592 48.8691 40.1592 50.5399Z" fill="#018DCE"/>
<path d="M67.2814 65.4149C67.2814 67.0776 65.935 68.4321 64.2642 68.4321C62.6015 68.4321 61.2471 67.0857 61.2471 65.4149C61.2471 63.7522 62.5934 62.3977 64.2642 62.3977C65.935 62.4058 67.2814 63.7522 67.2814 65.4149Z" fill="#018DCE"/>
<path d="M80.6317 40.5718C80.6317 42.2344 79.2853 43.5889 77.6145 43.5889C75.9518 43.5889 74.5973 42.2426 74.5973 40.5718C74.5973 38.9091 75.9437 37.5546 77.6145 37.5546C79.2772 37.5627 80.6317 38.9091 80.6317 40.5718Z" fill="#018DCE"/>
<path d="M94.4929 57.0204C94.4929 58.6831 93.1465 60.0376 91.4757 60.0376C89.813 60.0376 88.4585 58.6912 88.4585 57.0204C88.4585 55.3577 89.8049 54.0032 91.4757 54.0032C93.1384 54.0032 94.4929 55.3496 94.4929 57.0204Z" fill="#018DCE"/>
<path d="M107.511 50.6615C107.511 52.3242 106.164 53.6787 104.493 53.6787C102.831 53.6787 101.476 52.3323 101.476 50.6615C101.476 48.9988 102.823 47.6443 104.493 47.6443C106.164 47.6443 107.511 48.9988 107.511 50.6615Z" fill="#018DCE"/>
<path d="M120.334 60.0051C120.334 61.6678 118.987 63.0223 117.316 63.0223C115.654 63.0223 114.299 61.6759 114.299 60.0051C114.299 58.3424 115.646 56.9879 117.316 56.9879C118.987 56.9879 120.334 58.3424 120.334 60.0051Z" fill="#018DCE"/>
<path d="M134.398 49.8586C134.398 51.5213 133.051 52.8758 131.38 52.8758C129.718 52.8758 128.363 51.5294 128.363 49.8586C128.363 48.1959 129.71 46.8414 131.38 46.8414C133.051 46.8414 134.398 48.1959 134.398 49.8586Z" fill="#018DCE"/>
<path d="M147.131 73.5824C147.131 75.2451 145.785 76.5996 144.114 76.5996C142.452 76.5996 141.097 75.2532 141.097 73.5824C141.097 71.9197 142.443 70.5652 144.114 70.5652C145.777 70.5652 147.131 71.9116 147.131 73.5824Z" fill="#018DCE"/>
<path d="M161.106 30.6523C161.106 32.315 159.76 33.6695 158.089 33.6695C156.426 33.6695 155.072 32.3231 155.072 30.6523C155.072 28.9896 156.418 27.6351 158.089 27.6351C159.752 27.6351 161.106 28.9815 161.106 30.6523Z" fill="#018DCE"/>
<defs>
<linearGradient id="paint0_linear_1_1479" x1="97.8303" y1="95.1046" x2="97.8303" y2="28.1651" gradientUnits="userSpaceOnUse">
<stop offset="0.0101" stop-opacity="0"/>
<stop offset="1" stop-color="#0198CE"/>
</linearGradient>
</defs>
</svg>
